<svg width="24" height="25" viewBox="0 0 24 25" fill="none" xmlns="http://www.w3.org/2000/svg">
<path d="M12.0012 1.1499C6.18116 1.1499 1.45117 5.8799 1.45117 11.6999V22.8199H22.5612V11.6999C22.5612 5.8799 17.8312 1.1499 12.0112 1.1499H12.0012ZM5.16116 21.3199C5.53116 18.6199 7.84116 16.5399 10.6412 16.5399H13.3712C16.1612 16.5399 18.4812 18.6199 18.8512 21.3199H5.16116ZM21.0612 21.3199H20.3612C19.9812 17.7999 16.9912 15.0399 13.3712 15.0399H10.6412C7.02116 15.0399 4.03117 17.7999 3.65117 21.3199H2.95117V11.6999C2.95117 6.7099 7.01116 2.6499 12.0012 2.6499C16.9912 2.6499 21.0512 6.7099 21.0512 11.6999V21.3199H21.0612Z" fill="black"/>
<path d="M12 5.20996C9.52 5.20996 7.5 7.22996 7.5 9.70996C7.5 12.19 9.52 14.21 12 14.21C14.48 14.21 16.5 12.19 16.5 9.70996C16.5 7.22996 14.48 5.20996 12 5.20996ZM12 12.71C10.34 12.71 9 11.36 9 9.70996C9 8.05996 10.35 6.70996 12 6.70996C13.65 6.70996 15 8.05996 15 9.70996C15 11.36 13.65 12.71 12 12.71Z" fill="black"/>
</svg>
