<svg width="32" height="24" viewBox="0 0 32 24" fill="none" xmlns="http://www.w3.org/2000/svg">
<path d="M17.4194 9.73983V11.2398H24.6294L31.3494 0.999827L30.0294 0.939827C19.8094 0.499827 16.4494 5.30983 15.3594 8.22983C14.8894 9.47983 14.7794 11.8098 14.7494 13.0098H11.9894V16.2198H9.85938V23.5498H22.2694V16.2198H20.1394V13.0098H16.2494C16.2794 11.7498 16.4094 9.72983 16.7694 8.74983C17.8594 5.81983 20.8194 2.41983 28.6294 2.40983L25.6394 6.95983H19.3994V8.45983H24.6594L23.8194 9.73983H17.4194ZM20.7794 17.7198V22.0498H11.3694V17.7198H20.7794ZM18.6494 16.2198H13.4994V14.5098H18.6494V16.2198Z" fill="black"/>
</svg>
