<svg width="24" height="25" viewBox="0 0 24 25" fill="none" xmlns="http://www.w3.org/2000/svg">
<path d="M19.8286 9.13016C19.8286 7.00016 18.9886 5.01016 17.4586 3.53016C15.9286 2.04016 13.9186 1.27016 11.7686 1.32016C9.68858 1.38016 7.74858 2.27016 6.28858 3.84016C4.84858 5.39016 4.07858 7.46016 4.17858 9.51016C4.25858 11.2102 4.89859 12.8302 5.98859 14.1402V23.7802L11.9886 21.2502L17.9986 23.7802V14.1402C19.1686 12.7402 19.8186 10.9802 19.8186 9.14016L19.8286 9.13016ZM7.39858 4.86016C8.57858 3.59016 10.1486 2.86016 11.8186 2.82016C11.8786 2.82016 11.9386 2.82016 11.9986 2.82016C13.6586 2.82016 15.2186 3.45016 16.4086 4.61016C17.6486 5.81016 18.3286 7.42016 18.3286 9.14016C18.3286 10.7102 17.7486 12.2102 16.6986 13.3702C16.1286 14.0002 15.4386 14.5102 14.6686 14.8702C14.4086 14.9902 14.1486 15.0902 13.8786 15.1702C12.7086 15.5502 11.3286 15.5602 10.1086 15.1702C9.03858 14.8402 8.06858 14.2102 7.29858 13.3602C6.30858 12.2602 5.74858 10.9102 5.67858 9.43016C5.59858 7.78016 6.22858 6.11016 7.38858 4.85016L7.39858 4.86016ZM7.49858 15.5202C7.49858 15.5202 7.58858 15.5702 7.63858 15.6002C7.84858 15.7402 8.06858 15.8702 8.28858 15.9902C8.39858 16.0502 8.49858 16.1202 8.61858 16.1702C8.78858 16.2502 8.96858 16.3202 9.13858 16.3902V20.8202L7.49858 21.5102V15.5202ZM11.9986 19.6202L10.6386 20.1902V16.8202C11.0886 16.9002 11.5386 16.9502 11.9986 16.9502C12.4586 16.9502 12.9186 16.9002 13.3686 16.8202V20.1902L11.9986 19.6102V19.6202ZM16.5086 21.5102L14.8686 20.8202V16.3802C15.0486 16.3102 15.2186 16.2502 15.3886 16.1602C15.4986 16.1102 15.6086 16.0402 15.7186 15.9802C15.9386 15.8602 16.1586 15.7402 16.3686 15.5902C16.4086 15.5602 16.4586 15.5402 16.4986 15.5102V21.5002L16.5086 21.5102Z" fill="black"/>
<path d="M9.43938 12.7899L11.9994 11.4399L14.5694 12.7899L14.0794 9.9399L16.1494 7.9199L13.2794 7.4999L11.9994 4.8999L10.7194 7.4999L7.85938 7.9199L9.92937 9.9399L9.43938 12.7899Z" fill="black"/>
</svg>
