<svg width="20" height="20" viewBox="0 0 20 20" fill="none" xmlns="http://www.w3.org/2000/svg">
<mask id="mask0_1362_115779" style="mask-type:alpha" maskUnits="userSpaceOnUse" x="0" y="0" width="20" height="20">
<rect width="20" height="20" fill="#D9D9D9"/>
</mask>
<g mask="url(#mask0_1362_115779)">
<path d="M10 12C9.44444 12 8.97222 11.8056 8.58333 11.4167C8.19444 11.0278 8 10.5556 8 10C8 9.44444 8.19444 8.97222 8.58333 8.58333C8.97222 8.19444 9.44444 8 10 8C10.5556 8 11.0278 8.19444 11.4167 8.58333C11.8056 8.97222 12 9.44444 12 10C12 10.5556 11.8056 11.0278 11.4167 11.4167C11.0278 11.8056 10.5556 12 10 12ZM10 16C8.0195 16 6.21535 15.4549 4.58754 14.3646C2.95974 13.2743 1.76389 11.8194 1 10C1.76389 8.18056 2.95974 6.72569 4.58754 5.63542C6.21535 4.54514 8.0195 4 10 4C11.8798 4 13.5963 4.48958 15.1494 5.46875C16.7026 6.44792 17.8958 7.76389 18.7292 9.41667H17.0208C16.2708 8.19444 15.2743 7.23611 14.0312 6.54167C12.7882 5.84722 11.4444 5.5 10 5.5C8.44444 5.5 7.00694 5.90278 5.6875 6.70833C4.36806 7.51389 3.35417 8.61111 2.64583 10C3.35417 11.3889 4.36806 12.4861 5.6875 13.2917C7.00694 14.0972 8.44444 14.5 10 14.5C10.3472 14.5 10.6875 14.4792 11.0208 14.4375C11.3542 14.3958 11.6806 14.3333 12 14.25V15.7917C11.6806 15.8611 11.3542 15.9132 11.0208 15.9479C10.6875 15.9826 10.3472 16 10 16ZM10 13.5C10.3686 13.5 10.7247 13.4444 11.0681 13.3333C11.4116 13.2222 11.7222 13.0694 12 12.875C12.0278 12.2639 12.1736 11.7292 12.4375 11.2708C12.7014 10.8125 13.0556 10.4295 13.5 10.1218V10C13.5 9.02778 13.1597 8.20139 12.4792 7.52083C11.7986 6.84028 10.9722 6.5 10 6.5C9.02778 6.5 8.20139 6.84028 7.52083 7.52083C6.84028 8.20139 6.5 9.02778 6.5 10C6.5 10.9722 6.84028 11.7986 7.52083 12.4792C8.20139 13.1597 9.02778 13.5 10 13.5ZM14 17C13.8583 17 13.7396 16.9521 13.6438 16.8562C13.5479 16.7604 13.5 16.6417 13.5 16.5V13.5C13.5 13.3611 13.5486 13.2396 13.6458 13.1354C13.7431 13.0312 13.8611 12.9861 14 13H14.5V12C14.5 11.5875 14.6473 11.2344 14.9419 10.9406C15.2365 10.6469 15.5907 10.5 16.0044 10.5C16.4181 10.5 16.7708 10.6469 17.0625 10.9406C17.3542 11.2344 17.5 11.5875 17.5 12V13H18C18.1417 13 18.2604 13.0479 18.3563 13.1438C18.4521 13.2396 18.5 13.3583 18.5 13.5V16.5C18.5 16.6417 18.4521 16.7604 18.3563 16.8562C18.2604 16.9521 18.1417 17 18 17H14ZM15.25 13H16.75V12C16.75 11.7875 16.6785 11.6094 16.5356 11.4656C16.3927 11.3219 16.2156 11.25 16.0044 11.25C15.7931 11.25 15.6146 11.3219 15.4688 11.4656C15.3229 11.6094 15.25 11.7875 15.25 12V13Z" fill="black"/>
</g>
</svg>
