<svg width="24" height="25" viewBox="0 0 24 25" fill="none" xmlns="http://www.w3.org/2000/svg">
<path d="M19.39 14.9598C19.59 14.4398 20.1 14.0998 20.67 14.0998H22.25V9.93979H20.58C20.02 9.93979 19.53 9.61978 19.32 9.12978L19.25 8.96979C19.02 8.43979 19.13 7.83979 19.54 7.42979L20.72 6.24979L17.78 3.30978L16.52 4.56979C16.13 4.96979 15.54 5.07978 14.96 4.84978C14.43 4.63978 14.08 4.13978 14.08 3.55978V1.77979H9.92001V3.61979C9.92001 4.17979 9.59 4.67979 9.04 4.90979C8.52 5.12979 7.92 5.01979 7.52 4.61979L6.22 3.31979L3.28 6.25979L4.56001 7.53979C4.96001 7.93979 5.07 8.53979 4.83 9.10979C4.62 9.61979 4.12001 9.94978 3.56001 9.94978H1.75V14.1098H3.48C4.05 14.1098 4.56 14.4498 4.77 14.9898L4.81001 15.0998C5.02001 15.6098 4.9 16.1898 4.5 16.5798L3.28 17.7998L6.22 20.7398L7.37 19.5898C7.78 19.1798 8.38 19.0698 8.9 19.2998L9.1 19.3798C9.6 19.5898 9.92001 20.0798 9.92001 20.6398V22.2598H14.08V20.6998C14.08 20.1298 14.42 19.6198 14.93 19.4198L15.18 19.3198C15.69 19.0998 16.27 19.2198 16.68 19.6198L17.78 20.7198L20.72 17.7798L19.6 16.6598C19.2 16.2598 19.08 15.6798 19.29 15.1698L19.38 14.9398L19.39 14.9598ZM17.99 14.4198L17.91 14.6098C17.46 15.6798 17.71 16.9098 18.54 17.7398L18.6 17.7998L17.78 18.6198L17.74 18.5798C16.9 17.7398 15.67 17.4998 14.59 17.9598L14.39 18.0398C13.31 18.4598 12.58 19.5398 12.58 20.7098V20.7698H11.42V20.6498C11.42 19.4798 10.73 18.4398 9.67001 17.9998L9.51 17.9298C8.43 17.4498 7.14001 17.6898 6.31001 18.5298L6.22 18.6098L5.4 17.7898L5.56001 17.6298C6.38001 16.8098 6.63 15.5898 6.16 14.4298C5.73 13.3198 4.67 12.5998 3.48 12.5998H3.25V11.4398H3.56001C4.72001 11.4398 5.76 10.7498 6.23 9.64979C6.7 8.55979 6.46 7.30979 5.62 6.46979L5.4 6.24979L6.22 5.42979L6.46 5.66978C7.29 6.49978 8.53 6.73979 9.64 6.27979C10.72 5.82979 11.42 4.78979 11.42 3.61979V3.27979H12.58V3.55978C12.58 4.74978 13.3 5.79979 14.46 6.25979C15.53 6.68979 16.75 6.43979 17.57 5.61979L17.77 5.41978L18.59 6.23978L18.47 6.35979C17.62 7.20979 17.39 8.46979 17.88 9.56979L17.93 9.69978C18.37 10.7598 19.41 11.4398 20.58 11.4398H20.75V12.5998H20.67C19.49 12.5998 18.41 13.3298 17.99 14.4298V14.4198Z" fill="black"/>
<path d="M12 8.27002C9.93 8.27002 8.25 9.95003 8.25 12.02C8.25 14.09 9.93 15.77 12 15.77C14.07 15.77 15.75 14.09 15.75 12.02C15.75 9.95003 14.07 8.27002 12 8.27002ZM12 14.26C10.76 14.26 9.75 13.25 9.75 12.01C9.75 10.77 10.76 9.76003 12 9.76003C13.24 9.76003 14.25 10.77 14.25 12.01C14.25 13.25 13.24 14.26 12 14.26Z" fill="black"/>
</svg>
