<svg width="18" height="18" viewBox="0 0 18 18" fill="none" xmlns="http://www.w3.org/2000/svg">
<g clip-path="url(#clip0)">
<path d="M17.4537 12.4219L10.5011 5.47003V2.38705C10.5011 1.90035 10.3931 1.40989 10.1801 0.952408L10.0219 0.652445C9.83514 0.249729 9.44441 0 9.0012 0C8.55798 0 8.16725 0.249729 7.98878 0.635185L7.81403 0.968895C7.6093 1.40986 7.50131 1.89958 7.50131 2.38701V5.46999L0.550907 12.4205C0.196948 12.7744 0.00195312 13.2446 0.00195312 13.7456V14.6245C0.00195312 14.7618 0.0769351 14.8878 0.196948 14.953C0.316927 15.019 0.463938 15.0145 0.579416 14.9395L7.64681 10.4106C7.71655 11.5453 7.81105 12.4925 7.92652 13.6451L8.04576 14.8263L5.42024 16.5609C5.31449 16.6314 5.2515 16.7484 5.2515 16.8744V17.6243C5.2515 17.7375 5.30325 17.8455 5.39173 17.9168C5.48098 17.9887 5.5972 18.0157 5.70744 17.991L9.00116 17.2583L12.2949 17.991C12.3219 17.997 12.3489 18 12.3759 18C12.4606 18 12.5431 17.9715 12.6106 17.9175C12.6991 17.8455 12.7508 17.7375 12.7508 17.6243V16.8744C12.7508 16.7484 12.6878 16.6306 12.5821 16.5616L9.95656 14.8293L10.0758 13.6444C10.1913 12.4932 10.2858 11.5468 10.3555 10.4121L17.4229 14.9395C17.5392 15.0145 17.6854 15.0182 17.8046 14.953C17.9254 14.8877 18.0004 14.7617 18.0004 14.6245V13.7456C18.0004 13.2446 17.8062 12.7744 17.4537 12.4219Z" fill="#333333"/>
</g>
<defs>
<clipPath id="clip0">
<rect width="18" height="18" fill="white"/>
</clipPath>
</defs>
</svg>
