<svg width="20" height="20" viewBox="0 0 20 20" fill="none" xmlns="http://www.w3.org/2000/svg">
<mask id="mask0_1310_70542" style="mask-type:alpha" maskUnits="userSpaceOnUse" x="0" y="0" width="20" height="20">
<rect width="20" height="20" fill="#D9D9D9"/>
</mask>
<g mask="url(#mask0_1310_70542)">
<path d="M10 15L7.0625 16.1875C6.57639 16.3819 6.11111 16.3299 5.66667 16.0312C5.22222 15.7326 5 15.3194 5 14.7917V4.5C5 4.08178 5.14583 3.72375 5.4375 3.42592C5.72917 3.12808 6.08333 2.98611 6.5 3H10.25C10.4625 3 10.6406 3.07145 10.7844 3.21435C10.9281 3.35727 11 3.53435 11 3.7456C11 3.95687 10.9281 4.13542 10.7844 4.28125C10.6406 4.42708 10.4625 4.5 10.25 4.5H6.5V14.7708L10 13.375L13.5 14.7708V9.75C13.5 9.5375 13.5715 9.35938 13.7144 9.21562C13.8573 9.07187 14.0344 9 14.2456 9C14.4569 9 14.6354 9.07187 14.7812 9.21562C14.9271 9.35938 15 9.5375 15 9.75V14.7917C15 15.3194 14.7778 15.7326 14.3333 16.0312C13.8889 16.3299 13.4236 16.3819 12.9375 16.1875L10 15ZM14.2549 5.75H13.5024C13.2892 5.75 13.1105 5.67813 12.9663 5.53438C12.8221 5.39063 12.75 5.2125 12.75 5C12.75 4.7875 12.8221 4.60937 12.9663 4.46562C13.1105 4.32187 13.2892 4.25 13.5024 4.25H14.2549V3.5C14.2549 3.2875 14.327 3.10937 14.4712 2.96562C14.6154 2.82187 14.7931 2.75 15.0044 2.75C15.2156 2.75 15.3927 2.82187 15.5356 2.96562C15.6785 3.10937 15.75 3.2875 15.75 3.5V4.25H16.4956C16.7069 4.25 16.8854 4.32145 17.0312 4.46435C17.1771 4.60727 17.25 4.78435 17.25 4.9956C17.25 5.20687 17.1781 5.3846 17.0344 5.52881C16.8906 5.67303 16.7125 5.74515 16.5 5.74515H15.75V6.49756C15.75 6.71076 15.6781 6.88947 15.5344 7.03369C15.3906 7.1779 15.2125 7.25 15 7.25C14.7917 7.25 14.6154 7.17813 14.4712 7.03438C14.327 6.89063 14.2549 6.7125 14.2549 6.5V5.75Z" fill="black"/>
</g>
</svg>
