<svg width="24" height="25" viewBox="0 0 24 25" fill="none" xmlns="http://www.w3.org/2000/svg">
<path d="M15.378 5.09002L9.91797 2.61002L2.41797 6.27002V22.5L10.058 18.5L15.688 22.14L21.578 18.72V2.27002L15.378 5.09002ZM20.078 6.22002L19.768 6.03002C19.598 6.31002 19.388 6.63002 19.138 6.96002L19.938 7.55003C19.988 7.48003 20.018 7.42002 20.068 7.35002V17.85L16.118 20.14V8.80003H14.618V19.66L10.128 16.75L3.90797 20.01V11.44L4.31797 11.85C4.55797 11.6 4.83797 11.38 5.12797 11.2L4.59797 10.35C4.35797 10.5 4.12797 10.68 3.90797 10.87V7.20002L9.17797 4.63002V13.51H10.678V4.59002L15.378 6.72002L20.078 4.59002V6.21002V6.22002Z" fill="black"/>
<path d="M7.36914 9.44014L7.46914 10.4301C7.68914 10.4101 7.91914 10.3901 8.16914 10.3901C8.29914 10.3901 8.41914 10.3901 8.55914 10.3901L8.59914 9.39014C8.45914 9.39014 8.32914 9.39014 8.19914 9.39014C7.91914 9.39014 7.62914 9.40014 7.36914 9.43014V9.44014Z" fill="black"/>
<path d="M11.3681 9.8999L11.0781 10.8599C11.2381 10.9099 11.3881 10.9599 11.5481 11.0099C11.7781 11.0899 11.9981 11.1499 12.2181 11.1999L12.4381 10.2299C12.2481 10.1899 12.0581 10.1299 11.8581 10.0699C11.6881 10.0199 11.5181 9.9599 11.3581 9.9099L11.3681 9.8999Z" fill="black"/>
<path d="M5.35938 9.96006L5.76937 10.8701C6.07937 10.7301 6.41937 10.6201 6.76937 10.5401L6.54937 9.56006C6.12937 9.65006 5.72938 9.78006 5.35938 9.95006V9.96006Z" fill="black"/>
<path d="M19.4497 8.18004L18.6797 7.54004C18.4497 7.81004 18.1997 8.09004 17.9297 8.36004L18.6297 9.07004C18.9297 8.78004 19.1997 8.48004 19.4497 8.18004Z" fill="black"/>
<path d="M18.0278 9.6201L17.3878 8.8501C17.0978 9.0901 16.8078 9.3101 16.5078 9.4901L17.0378 10.3401C17.3778 10.1301 17.7078 9.8901 18.0278 9.6201Z" fill="black"/>
<path d="M13.1488 10.3398L13.0488 11.3398C13.2488 11.3598 13.4388 11.3699 13.6288 11.3699C13.8588 11.3699 14.0888 11.3598 14.3088 11.3298L14.1988 10.3398C13.8588 10.3798 13.5088 10.3798 13.1488 10.3398Z" fill="black"/>
</svg>
