<svg width="20" height="21" viewBox="0 0 20 21" fill="none" xmlns="http://www.w3.org/2000/svg">
<mask id="mask0_1362_116616" style="mask-type:alpha" maskUnits="userSpaceOnUse" x="0" y="0" width="20" height="21">
<rect y="0.5" width="20" height="20" fill="#D9D9D9"/>
</mask>
<g mask="url(#mask0_1362_116616)">
<path d="M2.5 16.5C2.0875 16.5 1.73438 16.3531 1.44063 16.0594C1.14688 15.7656 1 15.4125 1 15V6C1 5.5875 1.14688 5.23438 1.44063 4.94063C1.73438 4.64688 2.0875 4.5 2.5 4.5H11.5C11.9125 4.5 12.2656 4.64688 12.5594 4.94063C12.8531 5.23438 13 5.5875 13 6V15C13 15.4125 12.8531 15.7656 12.5594 16.0594C12.2656 16.3531 11.9125 16.5 11.5 16.5H2.5ZM2.5 13.8958C3.13889 13.4514 3.84028 13.1076 4.60417 12.8646C5.36806 12.6215 6.16667 12.5 7 12.5C7.83333 12.5 8.63195 12.6215 9.39583 12.8646C10.1597 13.1076 10.8611 13.4514 11.5 13.8958V6H2.5V13.8958ZM7 14C6.36111 14 5.75 14.0868 5.16667 14.2604C4.58333 14.434 4.04167 14.6806 3.54167 15H10.4583C9.95833 14.6806 9.41667 14.434 8.83333 14.2604C8.25 14.0868 7.63889 14 7 14ZM7 11.5C6.30556 11.5 5.71528 11.2569 5.22917 10.7708C4.74306 10.2847 4.5 9.69444 4.5 9C4.5 8.30556 4.74306 7.71528 5.22917 7.22917C5.71528 6.74306 6.30556 6.5 7 6.5C7.69444 6.5 8.28472 6.74306 8.77083 7.22917C9.25694 7.71528 9.5 8.30556 9.5 9C9.5 9.69444 9.25694 10.2847 8.77083 10.7708C8.28472 11.2569 7.69444 11.5 7 11.5ZM7 10C7.27778 10 7.51389 9.90278 7.70833 9.70833C7.90278 9.51389 8 9.27778 8 9C8 8.72222 7.90278 8.48611 7.70833 8.29167C7.51389 8.09722 7.27778 8 7 8C6.72222 8 6.48611 8.09722 6.29167 8.29167C6.09722 8.48611 6 8.72222 6 9C6 9.27778 6.09722 9.51389 6.29167 9.70833C6.48611 9.90278 6.72222 10 7 10ZM14.5 16.5V4.5H16V16.5H14.5ZM17.5 16.5V4.5H19V16.5H17.5Z" fill="#1C1B1F"/>
</g>
</svg>
