<svg width="24" height="25" viewBox="0 0 24 25" fill="none" xmlns="http://www.w3.org/2000/svg">
<path d="M12.75 11.6402L17.93 11.8802L21.94 8.61018L17.91 5.37018L12.75 5.77017V3.93018H11.25V5.89017L3.48 6.50018L3.87999 11.2202L11.24 11.5702V13.3802L6.17 13.4202L3 16.6902L6.87999 19.3002L11.25 18.6702V24.6702H12.75V18.4502L18.17 17.6602V13.3302L12.75 13.3702V11.6402ZM5.27 9.79018L5.11 7.88017L11.25 7.40018L12.75 7.28017L17.43 6.91018L19.56 8.62018L17.43 10.3602L12.75 10.1402L11.25 10.0702L5.27 9.79018ZM16.67 14.8402V16.3602L12.75 16.9302L11.25 17.1502L7.23999 17.7302L5.33 16.4502L6.81 14.9202L11.24 14.8902H12.74L16.66 14.8502L16.67 14.8402Z" fill="black"/>
<path d="M11.9292 3.1602C12.4692 3.1602 12.9092 2.7202 12.9092 2.1802C12.9092 1.6402 12.4692 1.2002 11.9292 1.2002C11.3892 1.2002 10.9492 1.6402 10.9492 2.1802C10.9492 2.7202 11.3892 3.1602 11.9292 3.1602Z" fill="black"/>
</svg>
