<svg width="32" height="32" viewBox="0 0 32 32" fill="none" xmlns="http://www.w3.org/2000/svg">
<mask id="mask0_1362_115172" style="mask-type:alpha" maskUnits="userSpaceOnUse" x="0" y="0" width="32" height="32">
<rect width="32" height="32" fill="#D9D9D9"/>
</mask>
<g mask="url(#mask0_1362_115172)">
<path d="M9.3335 23.138C7.3495 23.138 5.66388 22.4445 4.27663 21.0575C2.88941 19.6706 2.1958 17.9853 2.1958 16.0017C2.1958 14.0181 2.88941 12.3293 4.27663 10.9351C5.66388 9.54085 7.3495 8.84375 9.3335 8.84375H13.4726C13.8439 8.84375 14.1567 8.97468 14.4112 9.23655C14.6657 9.49842 14.7929 9.81581 14.7929 10.1887C14.7929 10.5616 14.6657 10.874 14.4112 11.1256C14.1567 11.3773 13.8439 11.5032 13.4726 11.5032H9.3335C8.07488 11.5032 7.01071 11.9373 6.141 12.8055C5.27127 13.6737 4.8364 14.736 4.8364 15.9925C4.8364 17.2489 5.27127 18.3138 6.141 19.1873C7.01071 20.0607 8.07488 20.4974 9.3335 20.4974H13.4726C13.8439 20.4974 14.1567 20.6252 14.4112 20.8807C14.6657 21.1363 14.7929 21.4506 14.7929 21.8235C14.7929 22.1964 14.6657 22.5088 14.4112 22.7605C14.1567 23.0121 13.8439 23.138 13.4726 23.138H9.3335ZM11.6262 17.1133C11.3128 17.1133 11.0489 17.0088 10.8346 16.7996C10.6203 16.5905 10.5132 16.3221 10.5132 15.9944C10.5132 15.6667 10.6172 15.4003 10.8252 15.195C11.0332 14.9898 11.3002 14.8872 11.6262 14.8872H20.3741C20.6876 14.8872 20.9514 14.9918 21.1657 15.2009C21.38 15.41 21.4871 15.6784 21.4871 16.0061C21.4871 16.3338 21.3831 16.6003 21.1751 16.8055C20.9672 17.0107 20.7001 17.1133 20.3741 17.1133H11.6262ZM18.5466 23.138C18.1627 23.138 17.8436 23.0102 17.5891 22.7546C17.3347 22.499 17.2074 22.1848 17.2074 21.8118C17.2074 21.4389 17.3347 21.1266 17.5891 20.8749C17.8436 20.6232 18.1627 20.4974 18.5466 20.4974H22.6668C23.9255 20.4974 24.9896 20.0633 25.8593 19.1951C26.7291 18.3269 27.1639 17.2646 27.1639 16.0081C27.1639 14.7517 26.7291 13.6868 25.8593 12.8133C24.9896 11.9399 23.9255 11.5032 22.6668 11.5032H18.5466C18.1627 11.5032 17.8436 11.3754 17.5891 11.1198C17.3347 10.8642 17.2074 10.55 17.2074 10.177C17.2074 9.80412 17.3347 9.48866 17.5891 9.23068C17.8436 8.97273 18.1627 8.84375 18.5466 8.84375H22.6668C24.6508 8.84375 26.3396 9.54036 27.7331 10.9336C29.1266 12.3268 29.8234 14.0152 29.8234 15.9988C29.8234 17.9824 29.1266 19.6682 27.7331 21.0561C26.3396 22.444 24.6508 23.138 22.6668 23.138H18.5466Z" fill="#1C1B1F"/>
</g>
</svg>
