<svg width="18" height="18" viewBox="0 0 18 18" fill="none" xmlns="http://www.w3.org/2000/svg">
<g clip-path="url(#clip0)">
<path d="M17.8973 6.5724C17.8093 6.46501 17.6779 6.40233 17.5401 6.40233H15.7882C15.3559 5.26206 14.7927 4.14484 14.1525 3.72311C11.9379 2.26621 6.06368 2.26621 3.84906 3.72311C3.20841 4.1453 2.64749 5.2639 2.21286 6.40233H0.460979C0.321787 6.40233 0.190892 6.46501 0.103782 6.5724C0.0162106 6.67933 -0.0188178 6.82082 0.00975802 6.95679L0.269245 8.21412C0.313491 8.42844 0.50246 8.58146 0.720466 8.58146H1.23944C0.738441 9.15943 0.495547 9.88719 0.492321 10.6154C0.489094 11.5151 0.830621 12.3281 1.45514 12.9033C1.46205 12.9093 1.46897 12.9135 1.47542 12.9195V14.6787C1.47542 15.0599 1.78515 15.3701 2.16677 15.3701H3.78269C4.16431 15.3701 4.47404 15.0599 4.47404 14.6787V13.9717H13.5266V14.6787C13.5266 15.0599 13.8363 15.3701 14.2179 15.3701H15.8338C16.2145 15.3701 16.5252 15.0599 16.5252 14.6787V12.954C17.188 12.347 17.5046 11.5119 17.5088 10.6781C17.5115 9.92499 17.2576 9.17049 16.7271 8.58054H17.2806C17.4995 8.58054 17.6885 8.42752 17.7318 8.21274L17.9918 6.95587C18.0185 6.82082 17.9849 6.68025 17.8973 6.5724ZM4.60816 4.87767C6.37341 3.71574 11.6272 3.71574 13.3915 4.87767C13.7344 5.10259 14.1755 6.01194 14.5797 7.12548H3.42088C3.82417 6.0124 4.26525 5.10351 4.60816 4.87767ZM2.54056 10.7887C2.54056 10.0374 3.14987 9.42906 3.90068 9.42906C4.65241 9.42906 5.26079 10.0374 5.26079 10.7887C5.26079 11.54 4.65241 12.1488 3.90068 12.1488C3.14987 12.1488 2.54056 11.54 2.54056 10.7887ZM14.1179 12.1488C13.3671 12.1488 12.7578 11.54 12.7578 10.7887C12.7578 10.0374 13.3671 9.42906 14.1179 9.42906C14.8696 9.42906 15.478 10.0374 15.478 10.7887C15.478 11.54 14.8687 12.1488 14.1179 12.1488Z" fill="#333333"/>
</g>
<defs>
<clipPath id="clip0">
<rect width="18.0005" height="18" fill="white"/>
</clipPath>
</defs>
</svg>
