<svg width="24" height="25" viewBox="0 0 24 25" fill="none" xmlns="http://www.w3.org/2000/svg">
<path d="M15.8793 3.5498H1.5293V19.5698H5.5493V23.3798L9.3593 19.5698H22.4693V10.1398C22.4693 6.5098 19.5093 3.5498 15.8793 3.5498ZM20.9693 18.0698H8.7393L7.0493 19.7598V18.0698H3.0293V5.0498H15.8793C18.6893 5.0498 20.9693 7.3298 20.9693 10.1398V18.0698Z" fill="black"/>
<path d="M13.0484 9.27979L10.9784 7.27979L8.90836 9.27979L7.36836 7.78979L6.31836 8.86979L8.90836 11.3698L10.9784 9.36979L13.0484 11.3698L15.1184 9.36979L16.6684 10.8698L17.7084 9.78979L15.1184 7.27979L13.0484 9.27979Z" fill="black"/>
<path d="M13.0305 13.9702L10.9705 11.9702L8.90054 13.9702L7.35054 12.4702L6.31055 13.5502L8.90054 16.0602L10.9705 14.0602L13.0305 16.0502L15.1005 14.0502L16.6505 15.5502L17.6905 14.4702L15.1005 11.9702L13.0305 13.9702Z" fill="black"/>
</svg>
