<svg width="24" height="25" viewBox="0 0 24 25" fill="none" xmlns="http://www.w3.org/2000/svg">
<path d="M22.7481 18.73L17.1281 13.65L16.1081 14.67L14.9481 13.51C16.0581 12.16 16.6581 10.48 16.6581 8.70996C16.6581 6.68996 15.8681 4.78996 14.4381 3.35996C11.4881 0.409961 6.67813 0.409961 3.72813 3.35996C0.778125 6.30996 0.778125 11.12 3.72813 14.07C5.20813 15.55 7.14813 16.28 9.07813 16.28C10.7781 16.28 12.4881 15.71 13.8781 14.57L15.0481 15.74L14.0181 16.77L19.0881 22.37L19.1181 22.4C19.6081 22.89 20.2581 23.16 20.9381 23.16C21.6181 23.16 22.2681 22.89 22.7481 22.41C23.7581 21.4 23.7581 19.76 22.7181 18.73H22.7481ZM4.79812 13.02C3.64812 11.87 3.01813 10.35 3.01813 8.72996C3.01813 7.10996 3.64812 5.57996 4.79812 4.43996C7.16812 2.06996 11.0181 2.06996 13.3881 4.43996C14.5381 5.58996 15.1681 7.10996 15.1681 8.72996C15.1681 10.35 14.5381 11.88 13.3881 13.02C11.0181 15.39 7.16812 15.39 4.79812 13.02ZM21.7081 21.35C21.5081 21.55 21.2381 21.66 20.9581 21.66C20.6781 21.66 20.4081 21.55 20.1981 21.35L16.0881 16.82L17.1781 15.72L21.7081 19.81C22.1281 20.23 22.1281 20.92 21.7081 21.34V21.35Z" fill="black"/>
<path d="M12.568 5.25006C11.608 4.29006 10.348 3.81006 9.08797 3.81006C7.82797 3.81006 6.56797 4.29006 5.60797 5.25006C3.68797 7.17006 3.68797 10.2801 5.60797 12.2001C6.56797 13.1601 7.82797 13.6401 9.08797 13.6401C10.348 13.6401 11.608 13.1601 12.568 12.2001C14.488 10.2801 14.488 7.17006 12.568 5.25006ZM11.508 11.1401C10.858 11.7901 10.008 12.1401 9.08797 12.1401C8.96797 12.1401 8.84797 12.1201 8.72797 12.1001L11.438 8.71006L10.268 7.77006L7.22797 11.5701C7.02797 11.4401 6.84797 11.2901 6.67797 11.1201C5.34797 9.79006 5.34797 7.62006 6.67797 6.29006C7.32797 5.64006 8.17797 5.29006 9.09797 5.29006C10.008 5.29006 10.868 5.65006 11.518 6.29006C12.168 6.94006 12.518 7.79006 12.518 8.71006C12.518 9.63006 12.158 10.4801 11.518 11.1301L11.508 11.1401Z" fill="black"/>
</svg>
