<svg width="20" height="21" viewBox="0 0 20 21" fill="none" xmlns="http://www.w3.org/2000/svg">
<mask id="mask0_1362_115792" style="mask-type:alpha" maskUnits="userSpaceOnUse" x="0" y="0" width="20" height="21">
<rect y="0.5" width="20" height="20" fill="#D9D9D9"/>
</mask>
<g mask="url(#mask0_1362_115792)">
<path d="M16.625 11.25H7V9.75H16.625L15.4375 8.5625L16.5 7.5L19.5 10.5L16.5 13.5L15.4375 12.4375L16.625 11.25ZM12.5 8.25V5H4.5V16H12.5V12.75H14V16C14 16.4125 13.8531 16.7656 13.5594 17.0594C13.2656 17.3531 12.9125 17.5 12.5 17.5H4.5C4.0875 17.5 3.73437 17.3531 3.44062 17.0594C3.14687 16.7656 3 16.4125 3 16V5C3 4.5875 3.14687 4.23438 3.44062 3.94063C3.73437 3.64688 4.0875 3.5 4.5 3.5H12.5C12.9125 3.5 13.2656 3.64688 13.5594 3.94063C13.8531 4.23438 14 4.5875 14 5V8.25H12.5Z" fill="#FF3B30"/>
</g>
</svg>
