<svg width="32" height="32" viewBox="0 0 32 32" fill="none" xmlns="http://www.w3.org/2000/svg">
<path d="M25.5 21H21.5C21.2239 21 21 21.2239 21 21.5V25.5C21 25.7761 21.2239 26 21.5 26H25.5C25.7761 26 26 25.7761 26 25.5V21.5C26 21.2239 25.7761 21 25.5 21Z" fill="black"/>
<path d="M20.5 17H17.5C17.2239 17 17 17.2239 17 17.5V20.5C17 20.7761 17.2239 21 17.5 21H20.5C20.7761 21 21 20.7761 21 20.5V17.5C21 17.2239 20.7761 17 20.5 17Z" fill="black"/>
<path d="M29.5 26H26.5C26.2239 26 26 26.2239 26 26.5V29.5C26 29.7761 26.2239 30 26.5 30H29.5C29.7761 30 30 29.7761 30 29.5V26.5C30 26.2239 29.7761 26 29.5 26Z" fill="black"/>
<path d="M29.5 17H27.5C27.2239 17 27 17.2239 27 17.5V19.5C27 19.7761 27.2239 20 27.5 20H29.5C29.7761 20 30 19.7761 30 19.5V17.5C30 17.2239 29.7761 17 29.5 17Z" fill="black"/>
<path d="M19.5 27H17.5C17.2239 27 17 27.2239 17 27.5V29.5C17 29.7761 17.2239 30 17.5 30H19.5C19.7761 30 20 29.7761 20 29.5V27.5C20 27.2239 19.7761 27 19.5 27Z" fill="black"/>
<path d="M25.5 6H21.5C21.2239 6 21 6.22386 21 6.5V10.5C21 10.7761 21.2239 11 21.5 11H25.5C25.7761 11 26 10.7761 26 10.5V6.5C26 6.22386 25.7761 6 25.5 6Z" fill="black"/>
<path fill-rule="evenodd" clip-rule="evenodd" d="M17 4C17 2.89543 17.8954 2 19 2H28C29.1046 2 30 2.89543 30 4V13C30 14.1046 29.1046 15 28 15H19C17.8954 15 17 14.1046 17 13V4ZM28 4H19V13H28V4Z" fill="black"/>
<path d="M10.5 6H6.5C6.22386 6 6 6.22386 6 6.5V10.5C6 10.7761 6.22386 11 6.5 11H10.5C10.7761 11 11 10.7761 11 10.5V6.5C11 6.22386 10.7761 6 10.5 6Z" fill="black"/>
<path fill-rule="evenodd" clip-rule="evenodd" d="M2 4C2 2.89543 2.89543 2 4 2H13C14.1046 2 15 2.89543 15 4V13C15 14.1046 14.1046 15 13 15H4C2.89543 15 2 14.1046 2 13V4ZM13 4H4V13H13V4Z" fill="black"/>
<path d="M10.5 21H6.5C6.22386 21 6 21.2239 6 21.5V25.5C6 25.7761 6.22386 26 6.5 26H10.5C10.7761 26 11 25.7761 11 25.5V21.5C11 21.2239 10.7761 21 10.5 21Z" fill="black"/>
<path fill-rule="evenodd" clip-rule="evenodd" d="M2 19C2 17.8954 2.89543 17 4 17H13C14.1046 17 15 17.8954 15 19V28C15 29.1046 14.1046 30 13 30H4C2.89543 30 2 29.1046 2 28V19ZM13 19H4V28H13V19Z" fill="black"/>
</svg>
