<svg width="20" height="21" viewBox="0 0 20 21" fill="none" xmlns="http://www.w3.org/2000/svg">
<path d="M4.2168 4.2251L6.3418 19.5001" stroke="white" stroke-width="1.42" stroke-miterlimit="10"/>
<path d="M4.58398 5.91668C4.58398 5.91668 7.08398 4.66668 11.1675 6.39159C13.334 7.30672 15.4092 7.17492 16.6925 6.76659L14.4925 13.5999C14.4925 13.5999 12.1092 14.3583 10.2508 13.0916C8.07585 11.6083 5.82585 12.3833 5.82585 12.3833" fill="white"/>
<path d="M4.58398 5.91668C4.58398 5.91668 7.08398 4.66668 11.1675 6.39159C13.334 7.30672 15.4092 7.17492 16.6925 6.76659L14.4925 13.5999C14.4925 13.5999 12.1092 14.3583 10.2508 13.0916C8.07585 11.6083 5.82585 12.3833 5.82585 12.3833" stroke="white" stroke-width="1.42" stroke-miterlimit="10"/>
<path d="M3.76693 2.83341C4.02006 2.83341 4.22526 2.62821 4.22526 2.37508C4.22526 2.12195 4.02006 1.91675 3.76693 1.91675C3.5138 1.91675 3.30859 2.12195 3.30859 2.37508C3.30859 2.62821 3.5138 2.83341 3.76693 2.83341Z" stroke="white" stroke-width="1.42" stroke-miterlimit="10"/>
</svg>
