<svg width="18" height="18" viewBox="0 0 18 18" fill="none" xmlns="http://www.w3.org/2000/svg">
<path d="M13.065 9.56796L11.2624 7.57951C11.1502 7.45573 11.047 7.20066 11.0418 7.03344L10.9755 4.97022V4.91044C10.9755 4.59252 10.7168 4.3338 10.3988 4.3338H8.63432H7.93312C7.64903 4.3338 7.33207 4.53505 7.21117 4.79204L4.8358 9.83763C4.77006 9.97757 4.76353 10.1338 4.81735 10.2782C4.87117 10.4223 4.97881 10.5361 5.12008 10.5984L5.4701 10.7528C5.54468 10.7856 5.62426 10.8024 5.70672 10.8024C5.93295 10.8024 6.14362 10.6738 6.24376 10.4748L7.35648 8.2611V10.4862C7.35187 10.499 7.34514 10.5108 7.34091 10.5238L5.46049 16.4129C5.38226 16.6581 5.4061 16.9163 5.52777 17.1396C5.64944 17.363 5.85318 17.5229 6.10191 17.59L6.22761 17.624C6.30988 17.6463 6.39522 17.6576 6.48095 17.6576C6.91362 17.6576 7.3067 17.373 7.43702 16.9651L9.19404 11.4624L9.8172 12.9888C9.96924 13.3611 10.1334 14.0131 10.1757 14.4129L10.4738 17.2232C10.5217 17.6732 10.8774 17.9998 11.3199 17.9998C11.3924 17.9998 11.466 17.9909 11.5385 17.9734L11.6651 17.9427C12.1695 17.8206 12.5259 17.3024 12.4596 16.7879L12.018 13.3611C11.9619 12.9257 11.7741 12.244 11.5994 11.8413L11.0032 10.4681C10.9955 10.4502 10.9845 10.4341 10.9757 10.4168V9.48627L12.0501 10.608C12.157 10.7197 12.3 10.7812 12.4526 10.7812C12.607 10.7812 12.7511 10.7185 12.8584 10.6048L13.0571 10.3937C13.2697 10.1679 13.2734 9.79765 13.065 9.56796Z" fill="#333333"/>
<path d="M9.32613 3.84523C10.3864 3.84523 11.2488 2.98276 11.2488 1.92252C11.2488 0.862461 10.3864 0 9.32613 0C8.26608 0 7.40381 0.862461 7.40381 1.92252C7.40362 2.98276 8.26608 3.84523 9.32613 3.84523Z" fill="#333333"/>
</svg>
