<svg width="20" height="20" viewBox="0 0 20 20" fill="none" xmlns="http://www.w3.org/2000/svg">
<mask id="mask0_1685_101416" style="mask-type:alpha" maskUnits="userSpaceOnUse" x="0" y="0" width="20" height="20">
<rect width="20" height="20" fill="#D9D9D9"/>
</mask>
<g mask="url(#mask0_1685_101416)">
<path d="M10.2544 17C10.0431 17 9.86458 16.9281 9.71875 16.7844C9.57292 16.6406 9.5 16.4625 9.5 16.25V12.75C9.5 12.5375 9.57145 12.3594 9.71435 12.2156C9.85727 12.0719 10.0344 12 10.2456 12C10.4569 12 10.6354 12.0719 10.7812 12.2156C10.9271 12.3594 11 12.5375 11 12.75V13.75H16.2441C16.4564 13.75 16.6354 13.8215 16.7812 13.9644C16.9271 14.1073 17 14.2844 17 14.4956C17 14.7069 16.9281 14.8854 16.7844 15.0312C16.6406 15.1771 16.4625 15.25 16.25 15.25H11V16.25C11 16.4625 10.9285 16.6406 10.7856 16.7844C10.6427 16.9281 10.4656 17 10.2544 17ZM3.75 15.25C3.5375 15.25 3.35938 15.1785 3.21563 15.0356C3.07188 14.8927 3 14.7156 3 14.5044C3 14.2931 3.07188 14.1146 3.21563 13.9688C3.35938 13.8229 3.5375 13.75 3.75 13.75H7.25C7.4625 13.75 7.64062 13.8215 7.78438 13.9644C7.92813 14.1073 8 14.2844 8 14.4956C8 14.7069 7.92813 14.8854 7.78438 15.0312C7.64062 15.1771 7.4625 15.25 7.25 15.25H3.75ZM6.7544 12.5C6.54313 12.5 6.36458 12.4281 6.21875 12.2844C6.07292 12.1406 6 11.9625 6 11.75V10.75H3.75548C3.54349 10.75 3.36458 10.6785 3.21875 10.5356C3.07292 10.3927 3 10.2156 3 10.0044C3 9.79313 3.07188 9.61458 3.21563 9.46875C3.35938 9.32292 3.5375 9.25 3.75 9.25H6V8.25C6 8.0375 6.07145 7.85938 6.21435 7.71562C6.35727 7.57187 6.53435 7.5 6.7456 7.5C6.95687 7.5 7.13542 7.57187 7.28125 7.71562C7.42708 7.85938 7.5 8.0375 7.5 8.25V11.75C7.5 11.9625 7.42855 12.1406 7.28565 12.2844C7.14273 12.4281 6.96565 12.5 6.7544 12.5ZM9.75 10.75C9.5375 10.75 9.35938 10.6785 9.21563 10.5356C9.07188 10.3927 9 10.2156 9 10.0044C9 9.79313 9.07188 9.61458 9.21563 9.46875C9.35938 9.32292 9.5375 9.25 9.75 9.25H16.25C16.4625 9.25 16.6406 9.32145 16.7844 9.46435C16.9281 9.60727 17 9.78435 17 9.9956C17 10.2069 16.9281 10.3854 16.7844 10.5312C16.6406 10.6771 16.4625 10.75 16.25 10.75H9.75ZM12.7544 8C12.5431 8 12.3646 7.92813 12.2188 7.78438C12.0729 7.64063 12 7.4625 12 7.25V3.75C12 3.5375 12.0715 3.35937 12.2144 3.21562C12.3573 3.07187 12.5344 3 12.7456 3C12.9569 3 13.1354 3.07187 13.2812 3.21562C13.4271 3.35937 13.5 3.5375 13.5 3.75V4.75H16.25C16.4625 4.75 16.6406 4.82145 16.7844 4.96435C16.9281 5.10727 17 5.28435 17 5.4956C17 5.70687 16.9281 5.88542 16.7844 6.03125C16.6406 6.17708 16.4625 6.25 16.25 6.25H13.5V7.25C13.5 7.4625 13.4285 7.64063 13.2856 7.78438C13.1427 7.92813 12.9656 8 12.7544 8ZM3.75 6.25C3.5375 6.25 3.35938 6.17855 3.21563 6.03565C3.07188 5.89273 3 5.71565 3 5.5044C3 5.29313 3.07188 5.11458 3.21563 4.96875C3.35938 4.82292 3.5375 4.75 3.75 4.75H10.25C10.4625 4.75 10.6406 4.82145 10.7844 4.96435C10.9281 5.10727 11 5.28435 11 5.4956C11 5.70687 10.9281 5.88542 10.7844 6.03125C10.6406 6.17708 10.4625 6.25 10.25 6.25H3.75Z" fill="#1C1B1F"/>
</g>
</svg>
