<svg width="24" height="24" viewBox="0 0 24 24" fill="none" xmlns="http://www.w3.org/2000/svg">
<path d="M19.1805 6.72998C19.1805 7.91998 18.6305 8.97998 17.7605 9.66998C17.1205 10.18 16.3105 10.49 15.4305 10.49C14.6405 10.49 13.9105 10.25 13.3105 9.83998C14.1205 9.01998 14.5805 7.90998 14.5805 6.72998C14.5805 5.54998 14.1105 4.43998 13.3205 3.62998C13.9205 3.21998 14.6505 2.97998 15.4305 2.97998C16.3005 2.97998 17.1105 3.27998 17.7505 3.78998C18.6205 4.46998 19.1805 5.53998 19.1805 6.72998Z" fill="black"/>
<path d="M23.4496 22.36H18.5696C17.6696 13.66 14.3496 12.57 14.3496 12.57C14.3496 12.57 14.7496 12.33 17.8696 12.57C20.9896 12.81 23.4496 19.5 23.4496 22.36Z" fill="black"/>
<path d="M8.90922 2.27002C6.44922 2.27002 4.44922 4.27002 4.44922 6.73002C4.44922 9.19002 6.44922 11.2 8.90922 11.2C9.90922 11.2 10.8892 10.85 11.6792 10.22C11.8292 10.1 11.9692 9.98002 12.0992 9.84002C12.9092 9.02002 13.3692 7.91002 13.3692 6.73002C13.3692 5.55002 12.8992 4.44002 12.1092 3.63002C11.9692 3.49002 11.8192 3.36002 11.6692 3.24002C10.8892 2.61002 9.90922 2.27002 8.90922 2.27002ZM10.9992 8.82002C10.9392 8.88002 10.8592 8.95002 10.7392 9.05002C10.2092 9.47002 9.55922 9.70002 8.90922 9.70002C7.27922 9.70002 5.94922 8.37002 5.94922 6.73002C5.94922 5.09002 7.27922 3.77002 8.90922 3.77002C9.56922 3.77002 10.2192 4.00002 10.7292 4.41002C10.8392 4.50002 10.9492 4.59002 11.0292 4.68002C11.5492 5.22002 11.8592 5.98002 11.8592 6.73002C11.8592 7.48002 11.5592 8.24002 10.9892 8.82002H10.9992Z" fill="black"/>
<path d="M13.3108 13.3903C11.8208 12.6103 10.2508 12.2803 8.77078 12.2803C6.04078 12.2803 3.62078 13.4203 2.60078 15.0103C1.60078 16.5803 0.550781 22.3603 0.550781 22.3603H17.2608C17.2608 22.3603 16.2408 14.9203 13.3108 13.3903ZM2.38078 20.8603C2.82078 18.8003 3.42078 16.5103 3.87078 15.8203C4.50078 14.8403 6.30078 13.7803 8.78078 13.7803C10.1208 13.7803 11.4508 14.1103 12.6208 14.7203C13.8708 15.3703 14.9208 18.3003 15.4708 20.8603H2.38078Z" fill="black"/>
</svg>
