<svg width="18" height="18" viewBox="0 0 18 18" fill="none" xmlns="http://www.w3.org/2000/svg">
<g clip-path="url(#clip0)">
<path d="M16.4019 4.40128C16.2549 2.96443 16.0208 1.84569 15.6504 1.40596C14.1232 -0.402077 3.42548 -0.534392 2.21088 1.40596C1.91376 1.88135 1.70539 2.99612 1.56555 4.40365C1.11433 4.45674 0.762939 4.83665 0.762939 5.30173V7.06184C0.762939 7.45324 1.01093 7.78323 1.35717 7.91198C1.27517 10.6843 1.34172 13.5766 1.46453 15.015C1.46453 16.1254 2.21048 15.9412 2.21048 15.9412H2.90969V17.14C2.90969 17.6154 3.39973 18 4.00347 18C4.608 18 5.09804 17.6154 5.09804 17.14V15.9412H13.2326V17.14C13.2326 17.6154 13.7223 18 14.3268 18C14.9306 18 15.4206 17.6154 15.4206 17.14V15.9412H15.6504C15.6504 15.9412 16.5282 16.0616 16.5845 15.5387C16.5845 14.1042 16.6748 10.9251 16.6003 7.92426C16.9684 7.80898 17.237 7.46988 17.237 7.06184V5.30173C17.2374 4.82556 16.8689 4.43931 16.4019 4.40128ZM4.82351 1.66386H13.0377V2.90659H4.82351V1.66386ZM4.94077 14.5258C4.29583 14.5258 3.77331 14.0028 3.77331 13.3579C3.77331 12.7134 4.29583 12.1908 4.94077 12.1908C5.58571 12.1908 6.10863 12.7134 6.10863 13.3579C6.10863 14.0028 5.5861 14.5258 4.94077 14.5258ZM12.9938 14.5258C12.3492 14.5258 11.8255 14.0028 11.8255 13.3579C11.8255 12.7134 12.3488 12.1908 12.9938 12.1908C13.6387 12.1908 14.1612 12.7134 14.1612 13.3579C14.1616 14.0028 13.6387 14.5258 12.9938 14.5258ZM14.4782 9.41538H3.38309V3.5959H14.4782V9.41538Z" fill="#333333"/>
</g>
<defs>
<clipPath id="clip0">
<rect width="18" height="18" fill="white"/>
</clipPath>
</defs>
</svg>
