<svg width="20" height="21" viewBox="0 0 20 21" fill="none" xmlns="http://www.w3.org/2000/svg">
<mask id="mask0_1362_115774" style="mask-type:alpha" maskUnits="userSpaceOnUse" x="0" y="0" width="20" height="21">
<rect y="0.5" width="20" height="20" fill="#D9D9D9"/>
</mask>
<g mask="url(#mask0_1362_115774)">
<path d="M14.75 11.5V9.75H13V8.25H14.75V6.5H16.25V8.25H18V9.75H16.25V11.5H14.75ZM8 10.5C7.16667 10.5 6.45833 10.2083 5.875 9.625C5.29167 9.04167 5 8.33333 5 7.5C5 6.66667 5.29167 5.95833 5.875 5.375C6.45833 4.79167 7.16667 4.5 8 4.5C8.83333 4.5 9.54167 4.79167 10.125 5.375C10.7083 5.95833 11 6.66667 11 7.5C11 8.33333 10.7083 9.04167 10.125 9.625C9.54167 10.2083 8.83333 10.5 8 10.5ZM2 16.5V14.5833C2 14.2253 2.08681 13.8962 2.26042 13.596C2.43403 13.2959 2.67361 13.0556 2.97917 12.875C3.74306 12.4306 4.54861 12.0903 5.39583 11.8542C6.24306 11.6181 7.11111 11.5 8 11.5C8.88889 11.5 9.75694 11.6181 10.6042 11.8542C11.4514 12.0903 12.2569 12.4306 13.0208 12.875C13.3264 13.0556 13.566 13.2959 13.7396 13.596C13.9132 13.8962 14 14.2253 14 14.5833V16.5H2ZM3.5 15H12.5V14.5833C12.5 14.4935 12.479 14.4118 12.437 14.3382C12.395 14.2647 12.3396 14.2075 12.2708 14.1667C11.6181 13.7917 10.9306 13.5035 10.2083 13.3021C9.48611 13.1007 8.75 13 8 13C7.25 13 6.51389 13.1007 5.79167 13.3021C5.06944 13.5035 4.38194 13.7917 3.72917 14.1667C3.66042 14.2075 3.60503 14.2647 3.56302 14.3382C3.52101 14.4118 3.5 14.4935 3.5 14.5833V15ZM8.00442 9C8.41814 9 8.77083 8.85269 9.0625 8.55808C9.35417 8.26346 9.5 7.90929 9.5 7.49558C9.5 7.08186 9.35269 6.72917 9.05808 6.4375C8.76346 6.14583 8.40929 6 7.99558 6C7.58186 6 7.22917 6.14731 6.9375 6.44192C6.64583 6.73654 6.5 7.09071 6.5 7.50442C6.5 7.91814 6.64731 8.27083 6.94192 8.5625C7.23654 8.85417 7.59071 9 8.00442 9Z" fill="black"/>
</g>
</svg>
