<svg width="18" height="18" viewBox="0 0 18 18" fill="none" xmlns="http://www.w3.org/2000/svg">
<g clip-path="url(#clip0)">
<path d="M9.00011 0C5.21061 0 1.42114 0.473699 1.42114 3.78946V12.7895C1.42114 14.6179 2.9085 16.1053 4.73695 16.1053L3.3159 17.5263V18H5.42852L7.32327 16.1053H10.8949L12.7896 18H14.6843V17.5263L13.2633 16.1052C15.0917 16.1052 16.5791 14.6179 16.5791 12.7894V3.78946C16.579 0.473699 13.1875 0 9.00011 0ZM4.73695 14.2105C3.95062 14.2105 3.3159 13.5758 3.3159 12.7895C3.3159 12.0032 3.95062 11.3684 4.73695 11.3684C5.52328 11.3684 6.158 12.0032 6.158 12.7895C6.158 13.5758 5.52324 14.2105 4.73695 14.2105ZM8.05271 7.57897H3.3159V3.78946H8.05276V7.57897H8.05271ZM13.2633 14.2105C12.4769 14.2105 11.8422 13.5758 11.8422 12.7895C11.8422 12.0032 12.4769 11.3684 13.2633 11.3684C14.0496 11.3684 14.6843 12.0032 14.6843 12.7895C14.6843 13.5758 14.0496 14.2105 13.2633 14.2105ZM14.6843 7.57897H9.94747V3.78946H14.6843V7.57897V7.57897Z" fill="#333333"/>
</g>
<defs>
<clipPath id="clip0">
<rect width="18" height="18" fill="white"/>
</clipPath>
</defs>
</svg>
