<svg width="24" height="25" viewBox="0 0 24 25" fill="none" xmlns="http://www.w3.org/2000/svg">
<path d="M9.71094 8.95976C9.71094 8.29976 10.2509 7.75977 10.9109 7.75977H14.3709V9.97977C14.3709 10.6898 13.7909 11.2598 13.0909 11.2598H11.2909V14.3098H12.7909V12.7598H13.0909C14.6309 12.7598 15.8709 11.5098 15.8709 9.97977V6.25977H10.9109C9.42093 6.25977 8.21094 7.46976 8.21094 8.95976V10.3098H9.71094V8.95976Z" fill="black"/>
<path d="M12.791 15.6299H11.291V17.2399H12.791V15.6299Z" fill="black"/>
<path d="M4.32031 2.50024V22.4002L11.9503 20.5602L19.7503 22.3902V2.49023H4.32031V2.50024ZM18.2603 20.5002L11.9503 19.0202L5.83031 20.4902V3.99023H18.2603V20.4902V20.5002Z" fill="black"/>
</svg>
