<svg width="19" height="19" viewBox="0 0 19 19" fill="none" xmlns="http://www.w3.org/2000/svg">
<g clip-path="url(#clip0_1112_43)">
<path d="M12.0795 8.15856H7.78859C6.78369 8.18671 5.82939 8.60568 5.12856 9.32641C4.42773 10.0471 4.03564 11.0128 4.03564 12.0181C4.03564 13.0234 4.42773 13.989 5.12856 14.7098C5.82939 15.4305 6.78369 15.8495 7.78859 15.8776H12.078C13.0829 15.8495 14.0372 15.4305 14.738 14.7098C15.4388 13.989 15.8309 13.0234 15.8309 12.0181C15.8309 11.0128 15.4388 10.0471 14.738 9.32641C14.0372 8.60568 13.0829 8.18671 12.078 8.15856H12.0795ZM7.76134 12.0257H5.18832C5.18832 11.3433 5.45941 10.6888 5.94194 10.2063C6.42448 9.72372 7.07894 9.45264 7.76134 9.45264V12.0257ZM11.2213 10.2488V12.0196H8.64071V9.46777H11.2213V10.2488ZM12.0795 12.0211V9.4481C12.7619 9.4481 13.4163 9.71918 13.8989 10.2017C14.3814 10.6843 14.6525 11.3387 14.6525 12.0211H12.0795Z" fill="black"/>
<path d="M10.5886 3.8692C10.2776 3.99765 10.01 4.21269 9.81763 4.48878C9.62526 4.76486 9.5162 5.09038 9.50342 5.42664V7.50927H10.3616V5.42664C10.3736 5.26528 10.4284 5.11005 10.5205 4.977C10.6125 4.84395 10.7385 4.73792 10.8853 4.66987L16.3704 2.64929V1.74117L10.5886 3.8692Z" fill="black"/>
<path d="M9.07359 4.4277L2.63953 6.79791V7.71209L9.07359 5.34188V4.4277Z" fill="black"/>
</g>
<defs>
<clipPath id="clip0_1112_43">
<rect width="17.162" height="17.162" fill="white" transform="translate(0.921631 0.864815)"/>
</clipPath>
</defs>
</svg>
