<svg width="20" height="20" viewBox="0 0 20 20" fill="none" xmlns="http://www.w3.org/2000/svg">
<mask id="mask0_1008_59178" style="mask-type:alpha" maskUnits="userSpaceOnUse" x="0" y="0" width="20" height="20">
<rect width="20" height="20" fill="#D9D9D9"/>
</mask>
<g mask="url(#mask0_1008_59178)">
<path d="M13.7707 15.8959C13.6179 15.9931 13.4582 16.0834 13.2915 16.1667C13.1248 16.25 12.9443 16.3334 12.7498 16.4167C12.5554 16.5 12.3575 16.5 12.1561 16.4167C11.9547 16.3334 11.8193 16.1945 11.7498 16C11.6804 15.8056 11.6908 15.6146 11.7811 15.4271C11.8714 15.2396 12.0137 15.1042 12.2082 15.0209C12.3332 14.9653 12.4512 14.9097 12.5623 14.8542C12.6734 14.7986 12.7568 14.75 12.8123 14.7084L9.99984 12.125V14.2084C9.99984 14.5417 9.84706 14.7743 9.5415 14.9063C9.23595 15.0382 8.96512 14.9861 8.729 14.75L5.99984 12.0209H3.74984C3.5415 12.0209 3.36442 11.9479 3.21859 11.8021C3.07275 11.6563 2.99984 11.4792 2.99984 11.2709V8.77085C2.99984 8.56252 3.07275 8.38544 3.21859 8.2396C3.36442 8.09377 3.5415 8.02085 3.74984 8.02085H5.87484L2.39567 4.52085C2.24289 4.36808 2.1665 4.19099 2.1665 3.9896C2.1665 3.78821 2.24289 3.61113 2.39567 3.45835C2.54845 3.30558 2.72553 3.22919 2.92692 3.22919C3.12831 3.22919 3.30539 3.30558 3.45817 3.45835L16.5415 16.5417C16.6943 16.6945 16.7707 16.8681 16.7707 17.0625C16.7707 17.257 16.6943 17.4306 16.5415 17.5834C16.3887 17.7361 16.2116 17.8125 16.0103 17.8125C15.8089 17.8125 15.6318 17.7361 15.479 17.5834L13.7707 15.8959ZM15.8748 13.7709L14.7915 12.6875C15.0137 12.2847 15.1873 11.8577 15.3123 11.4063C15.4373 10.9549 15.4998 10.4931 15.4998 10.0209C15.4998 8.92363 15.2012 7.9271 14.604 7.03127C14.0068 6.13544 13.2221 5.4653 12.2498 5.02085C12.0554 4.92363 11.9096 4.78127 11.8123 4.59377C11.7151 4.40627 11.7082 4.2153 11.7915 4.02085C11.8748 3.81252 12.0207 3.66669 12.229 3.58335C12.4373 3.50002 12.6457 3.50696 12.854 3.60419C14.104 4.15974 15.1075 5.01044 15.8644 6.15627C16.6214 7.3021 16.9998 8.58335 16.9998 10C16.9998 10.6806 16.9026 11.3368 16.7082 11.9688C16.5137 12.6007 16.2359 13.2014 15.8748 13.7709ZM13.2915 11.1875L11.4998 9.39585V7.52085C11.4998 7.36808 11.5623 7.26044 11.6873 7.19794C11.8123 7.13544 11.9373 7.13891 12.0623 7.20835C12.5068 7.48613 12.8575 7.89585 13.1144 8.43752C13.3714 8.97919 13.4998 9.50697 13.4998 10.0209C13.4998 10.2153 13.4859 10.4097 13.4582 10.6042C13.4304 10.7986 13.3748 10.9931 13.2915 11.1875ZM9.99984 7.89585L8.06234 5.95835L8.729 5.29169C8.96512 5.05558 9.23595 5.00349 9.5415 5.13544C9.84706 5.26738 9.99984 5.50002 9.99984 5.83335V7.89585Z" fill="black"/>
</g>
</svg>
