<svg width="20" height="21" viewBox="0 0 20 21" fill="none" xmlns="http://www.w3.org/2000/svg">
<mask id="mask0_2211_76015" style="mask-type:alpha" maskUnits="userSpaceOnUse" x="0" y="0" width="20" height="21">
<rect y="0.5" width="20" height="20" fill="#D9D9D9"/>
</mask>
<g mask="url(#mask0_2211_76015)">
<path d="M13.7083 17.5L15.5 15.7083V17H16.5V14H13.5V15H14.7917L13 16.7917L13.7083 17.5ZM4.5 17.5C4.0875 17.5 3.73437 17.3531 3.44062 17.0594C3.14687 16.7656 3 16.4125 3 16V5C3 4.5875 3.14687 4.23438 3.44062 3.94063C3.73437 3.64688 4.0875 3.5 4.5 3.5H15.5C15.9125 3.5 16.2656 3.64688 16.5594 3.94063C16.8531 4.23438 17 4.5875 17 5V10.375C16.7625 10.295 16.5188 10.2261 16.2688 10.1683C16.0188 10.1106 15.7625 10.0683 15.5 10.0417V5H4.5V16H9.52083C9.54694 16.2711 9.58819 16.5299 9.64458 16.7763C9.70097 17.0226 9.77083 17.2639 9.85417 17.5H4.5ZM4.5 16V5V10.0417V10V16ZM6 14.5H9.58333C9.63889 14.2361 9.70965 13.9794 9.79563 13.7298C9.8816 13.4803 9.9775 13.2371 10.0833 13H6V14.5ZM6 11.25H11.5C11.8611 10.9722 12.25 10.7326 12.6667 10.5312C13.0833 10.3299 13.5278 10.1875 14 10.1042V9.75H6V11.25ZM6 8H14V6.5H6V8ZM14.9952 19.5C13.8873 19.5 12.9444 19.1095 12.1667 18.3285C11.3889 17.5477 11 16.6033 11 15.4952C11 14.3873 11.3905 13.4444 12.1715 12.6667C12.9523 11.8889 13.8967 11.5 15.0048 11.5C16.1127 11.5 17.0556 11.8905 17.8333 12.6715C18.6111 13.4523 19 14.3967 19 15.5048C19 16.6127 18.6095 17.5556 17.8285 18.3333C17.0477 19.1111 16.1033 19.5 14.9952 19.5Z" fill="#1C1B1F"/>
</g>
</svg>
