<svg width="24" height="25" viewBox="0 0 24 25" fill="none" xmlns="http://www.w3.org/2000/svg">
<path d="M18.7897 16.6498V5.56982C18.7897 4.62982 18.3997 4.09982 18.0697 3.80982C17.3697 3.19982 16.4297 3.24982 16.1597 3.27982H4.78968C3.77968 3.27982 2.89969 3.85982 2.48969 4.78982L2.42969 4.92982V8.21982H5.64968V19.7698L5.70969 19.9098C6.10969 20.8398 6.98968 21.4198 8.00968 21.4198C8.07968 21.4198 8.14969 21.4198 8.20969 21.4198H19.6697C20.6797 21.4198 21.5597 20.8398 21.9697 19.9098L22.0297 19.7698V16.6498H18.7897ZM5.63969 6.72982H3.91969V5.26981C4.27969 4.65981 5.27969 4.65981 5.63969 5.26981V6.71982V6.72982ZM8.85969 19.4398C8.69969 19.7098 8.43969 19.8798 8.12969 19.9098H7.99969C7.62969 19.9098 7.31969 19.7398 7.13969 19.4398V4.93982L7.07969 4.79982H16.2997C16.4297 4.76982 16.8597 4.76982 17.0897 4.96982C17.2197 5.08982 17.2897 5.28981 17.2897 5.58981V16.6698H8.86968V19.4598L8.85969 19.4398ZM20.5297 19.4398C20.3497 19.7398 20.0397 19.9198 19.6697 19.9198H10.3097L10.3697 19.7798V18.1598H20.5297V19.4398Z" fill="black"/>
<path d="M15.5504 7.95996H8.90039V9.45996H15.5504V7.95996Z" fill="black"/>
<path d="M15.5504 10.7002H8.90039V12.2002H15.5504V10.7002Z" fill="black"/>
<path d="M15.5504 13.4302H8.90039V14.9302H15.5504V13.4302Z" fill="black"/>
</svg>
