<svg width="24" height="24" viewBox="0 0 24 24" fill="none" xmlns="http://www.w3.org/2000/svg">
<mask id="mask0_2164_32529" style="mask-type:alpha" maskUnits="userSpaceOnUse" x="0" y="0" width="24" height="24">
<rect width="24" height="24" fill="#D9D9D9"/>
</mask>
<g mask="url(#mask0_2164_32529)">
<path d="M12.6742 20.425L10.0492 13.95L3.57422 11.325C3.35755 11.2417 3.19922 11.1125 3.09922 10.9375C2.99922 10.7625 2.94922 10.5834 2.94922 10.4C2.94922 10.2167 3.00339 10.0375 3.11172 9.86252C3.22005 9.68752 3.38255 9.55836 3.59922 9.47502L7.87422 7.87502L3.49922 3.50002C3.29922 3.30002 3.19922 3.06252 3.19922 2.78752C3.19922 2.51252 3.29922 2.27502 3.49922 2.07502C3.69922 1.87502 3.93672 1.77502 4.21172 1.77502C4.48672 1.77502 4.72422 1.87502 4.92422 2.07502L21.9242 19.075C22.1242 19.275 22.2242 19.5084 22.2242 19.775C22.2242 20.0417 22.1242 20.275 21.9242 20.475C21.7242 20.675 21.4867 20.775 21.2117 20.775C20.9367 20.775 20.6992 20.675 20.4992 20.475L16.1242 16.125L14.5242 20.4C14.4409 20.6167 14.3117 20.7792 14.1367 20.8875C13.9617 20.9959 13.7826 21.05 13.5992 21.05C13.4159 21.05 13.2367 21 13.0617 20.9C12.8867 20.8 12.7576 20.6417 12.6742 20.425ZM20.0242 3.97502C20.1576 4.10836 20.2492 4.27086 20.2992 4.46252C20.3492 4.65419 20.3326 4.85002 20.2492 5.05002L18.2242 10.5C18.0909 10.85 17.8451 11.0625 17.4867 11.1375C17.1284 11.2125 16.8159 11.1167 16.5492 10.85C16.4159 10.7167 16.3242 10.5542 16.2742 10.3625C16.2242 10.1709 16.2409 9.98336 16.3242 9.80002L17.5992 6.40002L14.1992 7.67502C14.0159 7.75836 13.8284 7.77502 13.6367 7.72502C13.4451 7.67502 13.2826 7.58336 13.1492 7.45002C12.8826 7.18336 12.7867 6.87086 12.8617 6.51252C12.9367 6.15419 13.1492 5.90836 13.4992 5.77502L18.9492 3.75002C19.1492 3.66669 19.3451 3.65002 19.5367 3.70002C19.7284 3.75002 19.8909 3.84169 20.0242 3.97502ZM13.5492 17.3L14.5742 14.575L9.42422 9.42502L6.69922 10.45L11.5992 12.4L13.5492 17.3Z" fill="black"/>
</g>
</svg>
