<svg width="20" height="20" viewBox="0 0 20 20" fill="none" xmlns="http://www.w3.org/2000/svg">
<mask id="mask0_1008_56941" style="mask-type:alpha" maskUnits="userSpaceOnUse" x="0" y="0" width="20" height="20">
<rect width="20" height="20" fill="#D9D9D9"/>
</mask>
<g mask="url(#mask0_1008_56941)">
<path d="M3.5 14.5V8.5V14.6458V14.5ZM3.5 16C3.09722 16 2.74653 15.8507 2.44792 15.5521C2.14931 15.2535 2 14.9028 2 14.5V5.5C2 5.09722 2.14236 4.74653 2.42708 4.44792C2.71181 4.14931 3.06944 4 3.5 4H4.5L6 7H8L6.5 4H8L9.5 7H11.5L10 4H11.5L13 7H15L13.5 4H16.5C16.9125 4 17.2656 4.14931 17.5594 4.44792C17.8531 4.74653 18 5.09722 18 5.5V8.5H3.5V14.5H10.5V16H3.5ZM12 16.25V14.9493C12 14.8442 12.0208 14.7465 12.0625 14.6562C12.1042 14.566 12.1597 14.4861 12.2292 14.4167L16.375 10.2917C16.4758 10.1887 16.5878 10.1144 16.711 10.0686C16.8342 10.0229 16.9567 10 17.0783 10C17.211 10 17.3382 10.0243 17.4599 10.0729C17.5815 10.1215 17.6921 10.1944 17.7917 10.2917L18.7083 11.2292C18.7998 11.33 18.8713 11.442 18.9228 11.5652C18.9743 11.6884 19 11.8108 19 11.9325C19 12.0541 18.9771 12.1786 18.9314 12.3057C18.8856 12.4329 18.8113 12.5463 18.7083 12.6458L14.5833 16.7708C14.5139 16.8403 14.434 16.8958 14.3438 16.9375C14.2535 16.9792 14.1558 17 14.0507 17H12.75C12.5375 17 12.3594 16.9281 12.2156 16.7844C12.0719 16.6406 12 16.4625 12 16.25ZM13 16H13.9375L16.3333 13.6042L15.875 13.125L15.4167 12.6667L13 15.0625V16ZM15.875 13.125L15.4167 12.6667L16.3333 13.6042L15.875 13.125Z" fill="black"/>
</g>
</svg>
