<svg width="20" height="20" viewBox="0 0 20 20" fill="none" xmlns="http://www.w3.org/2000/svg">
<mask id="mask0_1069_81006" style="mask-type:alpha" maskUnits="userSpaceOnUse" x="0" y="0" width="20" height="20">
<rect width="20" height="20" fill="#D9D9D9"/>
</mask>
<g mask="url(#mask0_1069_81006)">
<path d="M11.7083 17.5625C11.4167 17.8542 11.0625 18 10.6458 18C10.2292 18 9.875 17.8542 9.58333 17.5625L2.4375 10.4167C2.30382 10.2788 2.19749 10.1159 2.1185 9.92785C2.0395 9.73984 2 9.54861 2 9.35417V3.5C2 3.0875 2.14688 2.73438 2.44063 2.44063C2.73438 2.14688 3.0875 2 3.5 2H9.35417C9.55511 2 9.74424 2.03472 9.92154 2.10417C10.0988 2.17361 10.262 2.28262 10.411 2.43121L17.5625 9.58333C17.8542 9.875 18 10.2257 18 10.6354C18 11.0451 17.8542 11.3958 17.5625 11.6875L11.7083 17.5625ZM10.6458 16.5L16.5 10.6458L9.35417 3.5H3.5V9.35417L10.6458 16.5ZM5.5 6.75C5.84722 6.75 6.14236 6.62847 6.38542 6.38542C6.62847 6.14236 6.75 5.84722 6.75 5.5C6.75 5.15278 6.62847 4.85764 6.38542 4.61458C6.14236 4.37153 5.84722 4.25 5.5 4.25C5.15278 4.25 4.85764 4.37153 4.61458 4.61458C4.37153 4.85764 4.25 5.15278 4.25 5.5C4.25 5.84722 4.37153 6.14236 4.61458 6.38542C4.85764 6.62847 5.15278 6.75 5.5 6.75Z" fill="black"/>
</g>
</svg>
