<svg width="24" height="25" viewBox="0 0 24 25" fill="none" xmlns="http://www.w3.org/2000/svg">
<path d="M19.6684 21.4202L19.0784 20.1302C19.0784 20.1302 17.8084 17.3302 17.8084 15.0102C17.8084 14.8002 17.8084 14.5702 17.8084 14.3402C17.8484 11.9602 17.8984 8.3602 14.4084 6.9102C14.2184 6.8302 14.0184 6.7702 13.8184 6.7302L14.0684 2.8002C14.0684 2.1802 13.8284 1.5902 13.3984 1.1402C12.9584 0.690198 12.3784 0.450195 11.7484 0.450195C11.1284 0.450195 10.5384 0.690198 10.0984 1.1402C9.65844 1.5802 9.40844 2.1702 9.41844 2.8502L9.67844 6.7502C9.47844 6.8002 9.26844 6.8502 9.07844 6.9202C5.57844 8.3702 5.62844 11.9702 5.65844 14.3602V15.0202C5.65844 17.3302 4.39844 20.1102 4.38844 20.1402L3.89844 21.2002H8.84844C9.21844 22.4402 10.3684 23.3402 11.7284 23.3502C13.0884 23.3502 14.2384 22.4502 14.6084 21.2002H18.3084L19.6484 21.4302L19.6684 21.4202ZM11.7484 21.8402C11.2384 21.8402 10.7784 21.5902 10.5084 21.2002H12.9884C12.7184 21.5902 12.2584 21.8402 11.7484 21.8402ZM11.1784 2.2002C11.3384 2.0402 11.5484 1.9502 11.7684 1.9502C11.9884 1.9502 12.1884 2.0402 12.3484 2.1902C12.5084 2.3502 12.5884 2.5602 12.5984 2.7402L12.3484 6.5502H11.1884L10.9384 2.7902C10.9384 2.5602 11.0284 2.3502 11.1884 2.1902L11.1784 2.2002ZM6.19844 19.6902C6.61844 18.5602 7.17844 16.7202 7.17844 15.0102V14.3302C7.13844 12.1102 7.09844 9.3602 9.65844 8.3002C10.0384 8.1402 10.4784 8.0602 10.9784 8.0602H12.4884C12.9984 8.0502 13.4484 8.1302 13.8384 8.2902C16.3884 9.3502 16.3484 12.1002 16.3084 14.3102C16.3084 14.5502 16.3084 14.7802 16.3084 15.0002C16.3084 15.7002 16.4084 16.4202 16.5384 17.1102H10.1784V18.6102H16.9184C17.0384 19.0102 17.1684 19.3802 17.2784 19.6902H6.18844H6.19844Z" fill="black"/>
</svg>
