<svg width="24" height="25" viewBox="0 0 24 25" fill="none" xmlns="http://www.w3.org/2000/svg">
<path d="M8.90977 9.02016C7.66977 8.63016 6.27977 9.09016 5.23977 9.88016C1.75977 12.5302 3.39977 18.6202 3.39977 18.6202L7.83977 19.5102C8.65977 15.8502 14.9698 10.9402 8.89977 9.02016H8.90977Z" fill="black"/>
<path d="M5.20942 23.0599C6.47942 23.2799 6.91943 22.1799 7.26942 20.3399L3.18942 19.4199C2.98942 21.6599 3.58942 22.7799 5.20942 23.0599Z" fill="black"/>
<path d="M18.5597 3.3C17.3497 2.3 15.6997 1.67999 14.1897 2.08999C6.78969 4.09999 14.1497 10.33 14.9597 14.77L20.3497 13.92C20.3497 13.92 22.6297 6.66 18.5597 3.3Z" fill="black"/>
<path d="M15.3398 16.0199C15.6798 18.2499 16.1498 19.5999 17.6898 19.3999C19.6498 19.1399 20.4198 17.8199 20.2998 15.1099L15.3398 16.0199Z" fill="black"/>
</svg>
