<svg width="20" height="20" viewBox="0 0 20 20" fill="none" xmlns="http://www.w3.org/2000/svg">
<mask id="mask0_1310_70348" style="mask-type:alpha" maskUnits="userSpaceOnUse" x="0" y="0" width="20" height="20">
<rect width="20" height="20" fill="#D9D9D9"/>
</mask>
<g mask="url(#mask0_1310_70348)">
<path d="M14.625 5.375L16.5833 3.41667C16.7361 3.26389 16.9132 3.1875 17.1146 3.1875C17.316 3.1875 17.4931 3.26389 17.6458 3.41667C17.7986 3.56944 17.875 3.74653 17.875 3.94792C17.875 4.14931 17.7986 4.32639 17.6458 4.47917L15.1458 6.97917C14.9931 7.13194 14.8194 7.20833 14.625 7.20833C14.4306 7.20833 14.2569 7.13194 14.1042 6.97917L13.0208 5.89583C12.8681 5.74306 12.7951 5.56597 12.8021 5.36458C12.809 5.16319 12.8889 4.98611 13.0417 4.83333C13.1944 4.68056 13.3715 4.60417 13.5729 4.60417C13.7743 4.60417 13.9514 4.68056 14.1042 4.83333L14.625 5.375ZM10 15L7.0625 16.1875C6.57639 16.3819 6.11111 16.3299 5.66667 16.0312C5.22222 15.7326 5 15.3194 5 14.7917V4.5C5 4.08333 5.14583 3.72917 5.4375 3.4375C5.72917 3.14583 6.08333 3 6.5 3H10.5625C10.7986 3 10.9792 3.09375 11.1042 3.28125C11.2292 3.46875 11.25 3.67361 11.1667 3.89583C11.1111 4.07639 11.0694 4.25694 11.0417 4.4375C11.0139 4.61806 11 4.80556 11 5C11 5.83333 11.2257 6.58333 11.6771 7.25C12.1285 7.91667 12.7361 8.40278 13.5 8.70833C13.6389 8.77778 13.7813 8.82986 13.9271 8.86458C14.0729 8.89931 14.2222 8.93056 14.375 8.95833C14.5556 8.98611 14.7049 9.0625 14.8229 9.1875C14.941 9.3125 15 9.45833 15 9.625V14.7917C15 15.3194 14.7778 15.7326 14.3333 16.0312C13.8889 16.3299 13.4236 16.3819 12.9375 16.1875L10 15Z" fill="#1C1B1F"/>
</g>
</svg>
