<svg width="24" height="24" viewBox="0 0 24 24" fill="none" xmlns="http://www.w3.org/2000/svg">
<g clip-path="url(#clip0_1671_36748)">
<path d="M19.4998 19.4198H3.50977V7.3898H9.36977V5.0798H13.9798V3.5798H7.86977V5.8898H6.45977L5.14977 2.7998L3.75977 3.3898L4.82977 5.8898H2.00977V20.9198H20.9998V11.0198H19.4998V19.4198Z" fill="black"/>
<path d="M23.5592 4.57002H20.9992V2.02002H19.4992V4.57002H16.9492V6.07002H19.4992V8.63002H20.9992V6.07002H23.5592V4.57002Z" fill="black"/>
<path d="M7.16992 13.1999C7.16992 15.5899 9.11992 17.5399 11.5099 17.5399C13.8999 17.5399 15.8499 15.5899 15.8499 13.1999C15.8499 10.8099 13.8999 8.85986 11.5099 8.85986C9.11992 8.85986 7.16992 10.8099 7.16992 13.1999ZM14.3499 13.1999C14.3499 14.7699 13.0799 16.0399 11.5099 16.0399C9.93992 16.0399 8.66992 14.7699 8.66992 13.1999C8.66992 12.6499 8.82992 12.1499 9.09992 11.7099L10.3899 14.7599L11.7699 14.1699L10.2699 10.6399C10.6399 10.4599 11.0599 10.3499 11.4999 10.3499C13.0699 10.3499 14.3399 11.6199 14.3399 13.1899L14.3499 13.1999Z" fill="black"/>
</g>
<defs>
<clipPath id="clip0_1671_36748">
<rect width="24" height="24" fill="white"/>
</clipPath>
</defs>
</svg>
