<svg width="18" height="18" viewBox="0 0 18 18" fill="none" xmlns="http://www.w3.org/2000/svg">
<g clip-path="url(#clip0)">
<path d="M13.8326 7.42806L12.6315 3.79186C12.5529 3.55399 12.3306 3.39337 12.0802 3.39337H10.7422C10.4215 3.39337 10.1615 3.65331 10.1615 3.974C10.1615 4.29468 10.4215 4.55462 10.7422 4.55462H11.6605L11.9722 5.49813H6.1836L6.09622 5.35298H6.24232C6.56297 5.35298 6.82294 5.09304 6.82294 4.77235C6.82294 4.45167 6.56297 4.19173 6.24232 4.19173H4.42787C4.10722 4.19173 3.84724 4.45167 3.84724 4.77235C3.84724 5.09304 4.10722 5.35298 4.42787 5.35298H4.74086L5.1932 6.10445L4.54377 7.52741C3.32943 7.19711 2.00238 7.51874 1.05985 8.46128C-0.352992 9.87415 -0.353573 12.1334 1.05985 13.5469C3.14251 15.6296 6.68091 14.4621 7.15593 11.5947H8.8209C8.99959 11.5947 9.1683 11.5123 9.27836 11.3716L12.5358 7.20426L12.7293 7.79004C11.5713 8.39207 10.7785 9.60307 10.7785 10.9959C10.7785 12.9869 12.3983 14.6067 14.3892 14.6067C16.3802 14.6067 18 12.9869 18 10.9959C18 8.79615 16.0327 7.08603 13.8326 7.42806V7.42806ZM5.91916 7.31059L7.79883 10.4334H7.15901C6.9956 9.41444 6.40351 8.55269 5.59949 8.01107L5.91916 7.31059ZM5.10898 9.08581C5.53367 9.42003 5.84495 9.89172 5.97527 10.4334H4.49395L5.10898 9.08581ZM3.60262 13.4448C2.2568 13.4448 1.16189 12.3499 1.16189 11.0041C1.16189 9.48695 2.54262 8.32338 4.05177 8.60549L3.06257 10.773C2.88718 11.1573 3.16878 11.5947 3.59079 11.5947H5.97073C5.70586 12.656 4.74478 13.4448 3.60262 13.4448V13.4448ZM8.88601 9.98785L6.88256 6.65935H11.4877L8.88601 9.98785ZM14.3892 13.4454C13.0385 13.4454 11.9397 12.3466 11.9397 10.9959C11.9397 10.1178 12.4044 9.34647 13.1005 8.91398L13.8467 11.1727C13.9273 11.4168 14.1542 11.5714 14.3979 11.5714C14.7929 11.5714 15.0734 11.1841 14.9493 10.8085L14.2046 8.55403C15.6358 8.4468 16.8387 9.58235 16.8387 10.9959C16.8387 12.3466 15.7399 13.4454 14.3892 13.4454Z" fill="#333333"/>
</g>
<defs>
<clipPath id="clip0">
<rect width="18" height="18" fill="white"/>
</clipPath>
</defs>
</svg>
