<svg width="46" height="30" viewBox="0 0 46 30" fill="none" xmlns="http://www.w3.org/2000/svg">
<g clip-path="url(#clip0_1008_55329)">
<path d="M1.33102 8.02774C1.33102 7.92703 1.29679 7.82273 1.18651 7.79036L0.144511 7.00988C0.0380291 6.90917 0 6.80486 0 6.73653C0 6.63582 0.0722553 6.59985 0.216766 6.59985H3.66981C3.77629 6.59985 3.84855 6.66819 3.84855 6.80486V7.79036H3.9208C4.53307 7.14295 5.25182 6.59985 6.29382 6.59985C7.8416 6.59985 9.56812 7.48464 9.56812 15.0701C9.49587 24.6624 7.8416 25.5113 6.25959 25.5113C5.10731 25.5113 4.46081 24.8998 3.9208 24.22H3.84855V28.1656C3.84855 28.2663 3.84855 28.403 3.88277 28.439L4.99702 29.6295C5.10351 29.7302 5.17576 29.7985 5.17576 29.9028C5.17576 29.9711 5.06928 30.0035 4.95899 30.0035H0.216766C0.0722553 30.0035 0 29.9711 0 29.9028C0 29.8021 0.0342262 29.7338 0.144511 29.6295L1.25876 28.439C1.33102 28.4066 1.33102 28.2699 1.33102 28.1656V8.02774ZM3.84855 21.5333C3.84855 22.9612 4.81829 24.051 5.60929 24.051C6.4003 24.051 6.76157 23.2669 6.76157 15.0701C6.76157 8.77585 6.32804 8.06371 5.43056 8.06371C4.92857 8.06371 3.84855 8.94849 3.84855 10.6138V21.5333Z" fill="black"/>
<path d="M19.9618 15.2391C19.9618 23.641 18.0185 25.5113 15.6835 25.5113C13.3485 25.5113 11.4395 23.641 11.4395 15.2391C11.4395 8.53847 13.3827 6.59985 15.6835 6.59985C17.9843 6.59985 19.9618 8.53847 19.9618 15.2391ZM17.1552 15.2391C17.1552 9.31895 16.6532 8.06011 15.6797 8.06011C14.7062 8.06011 14.2422 9.31895 14.2422 15.2391C14.2422 22.8929 14.7442 24.051 15.6797 24.051C16.6152 24.051 17.1552 22.8929 17.1552 15.2391Z" fill="black"/>
<path d="M24.9247 23.6411C24.9247 23.7777 24.9247 23.8784 24.997 23.9468L26.1112 25.1373C26.1835 25.2056 26.2557 25.3063 26.2557 25.3747C26.2557 25.4754 26.1835 25.5113 26.039 25.5113H21.2929C21.1865 25.5113 21.0762 25.479 21.0762 25.3747C21.0762 25.3063 21.1484 25.2056 21.2207 25.1373L22.3349 23.9468C22.4072 23.8784 22.4072 23.7777 22.4072 23.6411V1.6329C22.4072 1.49622 22.373 1.42789 22.3007 1.35955L21.2207 0.374056C21.1484 0.305719 21.0762 0.205011 21.0762 0.136674C21.0762 0.0359669 21.1827 0 21.2929 0H24.746C24.8525 0 24.9247 0.0683371 24.9247 0.205011V23.6411Z" fill="black"/>
<path d="M35.8954 15.2391C35.8954 23.641 33.9521 25.5113 31.6171 25.5113C29.2821 25.5113 27.373 23.641 27.373 15.2391C27.373 8.53847 29.3163 6.59985 31.6171 6.59985C33.9179 6.59985 35.8954 8.53847 35.8954 15.2391ZM33.0888 15.2391C33.0888 9.31895 32.5868 8.06011 31.6133 8.06011C30.6397 8.06011 30.1758 9.31895 30.1758 15.2391C30.1758 22.8929 30.6778 24.051 31.6133 24.051C32.5488 24.051 33.0888 22.8929 33.0888 15.2391Z" fill="black"/>
<path d="M46.0008 21.5334C46.0008 28.7124 44.3123 30.0036 41.8632 30.0036C39.2012 30.0036 38.0869 27.5542 38.0869 27.0111C38.0869 26.8745 38.1211 26.7738 38.2314 26.7738C38.3417 26.7738 38.4482 26.9104 38.5547 27.0471C39.2734 27.9319 40.1367 28.5433 41.3954 28.5433C42.6542 28.5433 43.4832 27.5578 43.4832 24.2237H43.411C42.8368 24.9394 42.1522 25.5149 40.9999 25.5149C39.4179 25.5149 37.7637 24.6661 37.7637 15.0737C37.7637 7.45593 39.4902 6.60352 41.1787 6.60352C42.1865 6.60352 43.122 7.21495 43.662 7.89473H43.7342L45.4608 6.77256C45.5672 6.67185 45.7118 6.60352 45.822 6.60352C45.9323 6.60352 46.0008 6.67185 46.0008 6.77256V21.5334ZM43.4832 11.2612C43.4832 9.1176 42.5858 8.06377 41.7948 8.06377C40.9315 8.06377 40.5702 8.84785 40.5702 15.0701C40.5702 23.267 40.9315 24.0511 41.8632 24.0511C42.7265 24.0511 43.4832 22.9972 43.4832 21.3284V11.2612Z" fill="black"/>
</g>
<defs>
<clipPath id="clip0_1008_55329">
<rect width="46" height="30" fill="white"/>
</clipPath>
</defs>
</svg>
