<svg width="18" height="18" viewBox="0 0 18 18" fill="none" xmlns="http://www.w3.org/2000/svg">
<g clip-path="url(#clip0)">
<path d="M10.5895 2.04498C10.5895 1.54302 10.1811 1.13464 9.67914 1.13464H8.32074C7.81878 1.13464 7.4104 1.54302 7.4104 2.04498V3.40598H10.5895V2.04498Z" fill="#333333"/>
<path d="M9.13345 6.82998L14.4102 8.20874V4.806C14.4102 4.61559 14.2553 4.46069 14.0649 4.46069H3.93539C3.74499 4.46069 3.59009 4.61559 3.59009 4.806V8.20874L8.86686 6.82998C8.95423 6.80716 9.04605 6.80716 9.13345 6.82998V6.82998Z" fill="#333333"/>
<path d="M17.4726 15.8107C16.8906 15.8107 16.6281 15.6799 16.2956 15.5144C16.1396 15.4367 15.975 15.3547 15.7786 15.2849C15.506 15.188 15.1719 15.1145 14.714 15.1081L16.6448 10.2476C16.6875 10.1322 16.6534 10.0361 16.629 9.9889C16.6045 9.9413 16.5453 9.85675 16.4246 9.82521L8.99997 7.88525L1.57535 9.82521C1.45463 9.85675 1.39546 9.9413 1.37095 9.9889C1.34659 10.0361 1.31238 10.1323 1.35524 10.2478L3.2817 15.1081C2.82403 15.115 2.49026 15.189 2.2178 15.2863C2.02307 15.3558 1.85955 15.4372 1.70448 15.5144C1.37201 15.6799 1.10943 15.8107 0.527344 15.8107C0.236109 15.8107 0 16.0468 0 16.3381C0 16.6293 0.236109 16.8654 0.527344 16.8654C1.35745 16.8654 1.79156 16.6493 2.17455 16.4586C2.32379 16.3843 2.45911 16.3171 2.61538 16.2655C2.8073 16.2021 3.03086 16.1623 3.35169 16.1623C3.42492 16.1623 3.49306 16.1644 3.55697 16.1684C4.00092 16.1958 4.23819 16.3139 4.52883 16.4586C4.91182 16.6493 5.34593 16.8654 6.17604 16.8654C7.00611 16.8654 7.44019 16.6493 7.82322 16.4586C8.15565 16.2931 8.41823 16.1623 9.00025 16.1623C9.58226 16.1623 9.84481 16.2931 10.1772 16.4586C10.5602 16.6493 10.9943 16.8654 11.8244 16.8654C12.6545 16.8654 13.0885 16.6493 13.4715 16.4586C13.7631 16.3134 14.001 16.1951 14.4476 16.1681C14.5103 16.1643 14.5769 16.1623 14.6486 16.1623C14.9659 16.1623 15.188 16.2014 15.3785 16.2636C15.5374 16.3154 15.6744 16.3833 15.8256 16.4586C16.2085 16.6493 16.6426 16.8654 17.4727 16.8654C17.7639 16.8654 18 16.6293 18 16.3381C18 16.0469 17.7639 15.8107 17.4726 15.8107V15.8107ZM4.1246 10.584L8.86665 9.34494C8.95405 9.32213 9.04588 9.32213 9.13328 9.34494L13.8753 10.584C14.1571 10.6576 14.3259 10.9457 14.2522 11.2275C14.1903 11.4646 13.9765 11.6217 13.7424 11.6217C13.6983 11.6217 13.6534 11.6161 13.6087 11.6044L8.99997 10.4002L4.39123 11.6044C4.10945 11.6781 3.82131 11.5093 3.74769 11.2275C3.67407 10.9457 3.84282 10.6576 4.1246 10.584V10.584Z" fill="#333333"/>
</g>
<defs>
<clipPath id="clip0">
<rect width="18" height="18" fill="white"/>
</clipPath>
</defs>
</svg>
