<svg width="24" height="24" viewBox="0 0 24 24" fill="none" xmlns="http://www.w3.org/2000/svg">
<g clip-path="url(#clip0_1755_37422)">
<path d="M5.62953 16.3399C7.18953 17.5899 9.16953 18.2899 11.1995 18.2899C16.1195 18.2899 20.1195 14.2799 20.1195 9.35994C20.1195 6.13994 18.3695 3.14994 15.5595 1.56994C14.2295 0.829942 12.7195 0.439941 11.1995 0.439941C6.27953 0.439941 2.26953 4.44994 2.26953 9.35994C2.26953 12.0999 3.49953 14.6399 5.62953 16.3399ZM16.9795 14.0199L12.5895 14.3199L12.4695 13.5999L16.1195 12.2399L16.1495 8.39994L18.4395 7.84994C18.5395 8.33994 18.6095 8.83994 18.6095 9.36994C18.6095 11.1299 17.9895 12.7499 16.9695 14.0199H16.9795ZM14.8195 2.88994C16.2295 3.67994 17.3595 4.91994 18.0095 6.40994L14.6695 7.20994L14.6295 11.1899L10.7795 12.6199L11.3395 15.8999L15.1495 15.6399C14.0095 16.3599 12.6495 16.7899 11.1995 16.7899C9.44953 16.7899 7.83953 16.1899 6.55953 15.1699C5.38953 14.2399 4.51953 12.9499 4.07953 11.4699L6.29953 10.9399L7.47953 13.3099L13.1095 10.7499L13.4895 5.00994L9.77953 5.14994L9.17953 2.21994C9.81953 2.03994 10.4995 1.93994 11.1995 1.93994C12.5095 1.93994 13.7495 2.27994 14.8195 2.87994V2.88994ZM7.75953 2.78994L8.55953 6.69994L11.8795 6.57994L11.6695 9.76994L8.17953 11.3499L7.11953 9.20994L3.80953 9.98994C3.78953 9.77994 3.76953 9.56994 3.76953 9.35994C3.76953 6.49994 5.38953 4.01994 7.75953 2.78994Z" fill="black"/>
<path d="M22.6909 9.42994C22.6909 7.60994 22.2509 5.79994 21.4109 4.18994L20.0809 4.88994C20.8109 6.27994 21.1909 7.84994 21.1909 9.42994C21.1909 14.8499 16.7809 19.2599 11.3709 19.2599C8.90094 19.2599 6.53094 18.3399 4.72094 16.6699L3.71094 17.7699C5.62094 19.5299 8.05094 20.5499 10.6309 20.7199V21.9999H6.43094V23.4999H16.3309V21.9999H12.1309V20.7099C18.0209 20.3199 22.7009 15.4099 22.7009 9.41994L22.6909 9.42994Z" fill="black"/>
</g>
<defs>
<clipPath id="clip0_1755_37422">
<rect width="24" height="24" fill="white"/>
</clipPath>
</defs>
</svg>
