<svg width="24" height="24" viewBox="0 0 24 24" fill="none" xmlns="http://www.w3.org/2000/svg">
<mask id="mask0_2209_84647" style="mask-type:alpha" maskUnits="userSpaceOnUse" x="0" y="0" width="24" height="24">
<rect width="24" height="24" fill="#D9D9D9"/>
</mask>
<g mask="url(#mask0_2209_84647)">
<path d="M10.0502 13.9504L3.5752 11.3254C3.35853 11.2421 3.2002 11.1129 3.1002 10.9379C3.0002 10.7629 2.9502 10.5837 2.9502 10.4004C2.9502 10.2171 3.00436 10.0379 3.1127 9.86289C3.22103 9.68789 3.38353 9.55872 3.6002 9.47539L18.9502 3.77539C19.1502 3.69206 19.3419 3.67539 19.5252 3.72539C19.7085 3.77539 19.8669 3.86706 20.0002 4.00039C20.1335 4.13372 20.2252 4.29206 20.2752 4.47539C20.3252 4.65872 20.3085 4.85039 20.2252 5.05039L14.5252 20.4004C14.4419 20.6171 14.3127 20.7796 14.1377 20.8879C13.9627 20.9962 13.7835 21.0504 13.6002 21.0504C13.4169 21.0504 13.2377 21.0004 13.0627 20.9004C12.8877 20.8004 12.7585 20.6421 12.6752 20.4254L10.0502 13.9504ZM13.5502 17.3004L17.6002 6.40039L6.7002 10.4504L11.6002 12.4004L13.5502 17.3004Z" fill="black"/>
</g>
</svg>
