<svg width="24" height="25" viewBox="0 0 24 25" fill="none" xmlns="http://www.w3.org/2000/svg">
<path d="M11.9996 21.7301L11.5596 21.4101C11.2296 21.1701 3.5396 15.5001 2.7596 10.3501C2.5496 8.97014 2.8396 7.74014 3.6196 6.68014C4.6996 5.22014 5.9996 4.43015 7.4696 4.33015C9.4396 4.19015 11.1596 5.33014 11.9996 6.01014C12.8396 5.33014 14.5696 4.19015 16.5296 4.33015C18.0096 4.43015 19.2996 5.23014 20.3796 6.68014C21.1596 7.73014 21.4496 8.97014 21.2396 10.3501C20.4596 15.5001 12.7596 21.1701 12.4296 21.4101L11.9896 21.7301H11.9996ZM7.7996 5.82014C7.7196 5.82014 7.6496 5.82014 7.5696 5.82014C6.5496 5.89014 5.6296 6.48014 4.8196 7.57014C4.2796 8.30014 4.0896 9.13014 4.2396 10.1201C4.8296 14.0101 10.3796 18.5901 11.9996 19.8501C13.6196 18.5901 19.1696 14.0001 19.7596 10.1201C19.9096 9.14014 19.7196 8.30014 19.1796 7.57014C18.3796 6.48014 17.4496 5.90014 16.4296 5.82014C14.3996 5.69014 12.5496 7.51014 12.5296 7.53014L11.9996 8.06015L11.4696 7.53014C11.4696 7.53014 9.7296 5.81015 7.7996 5.81015V5.82014Z" fill="black"/>
</svg>
