<svg width="24" height="25" viewBox="0 0 24 25" fill="none" xmlns="http://www.w3.org/2000/svg">
<path d="M19.8003 7.4798C18.9703 7.7498 16.0903 8.5198 13.8003 7.1098C10.7003 5.2098 7.43031 5.4998 5.91031 5.7998L5.81031 5.0498L4.32031 5.2598L6.87032 23.5898L8.36031 23.3798L7.28032 15.6398C7.53032 15.5598 9.72031 14.9398 11.8903 16.4098C13.0503 17.1998 14.3503 17.4098 15.4103 17.4098C16.6303 17.4098 17.5503 17.1298 17.6203 17.0998L17.9903 16.9798L18.1103 16.6098C20.8703 8.0498 21.0503 7.06981 21.0503 7.06981L19.8103 7.4698L19.8003 7.4798ZM16.8103 15.7598C16.0403 15.9198 14.1903 16.1598 12.7303 15.1598C10.3503 13.5398 7.92031 13.9198 7.07031 14.1298L6.12032 7.2798C7.36032 7.0398 10.3003 6.71981 13.0103 8.37981C15.0503 9.62981 17.3303 9.53981 18.9003 9.23981C18.2903 11.1398 17.1803 14.5798 16.8003 15.7498L16.8103 15.7598Z" fill="black"/>
<path d="M5.76953 2.93994C5.76953 2.24994 5.20953 1.68994 4.51953 1.68994C3.82953 1.68994 3.26953 2.24994 3.26953 2.93994C3.26953 3.62994 3.82953 4.18994 4.51953 4.18994C5.20953 4.18994 5.76953 3.62994 5.76953 2.93994Z" fill="black"/>
</svg>
